<?xml version='1.0' encoding='utf-8'?>
<svg xmlns="http://www.w3.org/2000/svg" width="1920" height="1080" viewBox="0 0 1920 1080" data-theme="dark">
  <style>
        @font-face {
            font-family: 'Inter';
            src: url('assets/fonts/Inter-Regular.ttf') format('truetype');
            font-weight: 400;
            font-style: normal;
            font-display: swap;
        }
        @font-face {
            font-family: 'Inter';
            src: url('assets/fonts/Inter-Bold.ttf') format('truetype');
            font-weight: 600;
            font-style: normal;
            font-display: swap;
        }
        @font-face {
            font-family: 'Inter';
            src: url('assets/fonts/Inter-Bold.ttf') format('truetype');
            font-weight: 800;
            font-style: normal;
            font-display: swap;
        }
        
:root {
    --background: #0f172a;
    --panel: #1e293b;
    --primary-text: #f1f5f9;
    --muted-text: #94a3b8;
    --inverse-text: #0f172a;
    --border: #334155;
    --shadow-color: #000000;
    --icon-pad-bg: #1e293b;
    --art-glow: #7dd3fc;
    --art-glow-opacity: 0.18;
    --art-sheen: #ffffff;
    --art-sheen-opacity: 0.18;
    --art-shadow: #000000;
    --art-shadow-opacity: 0.28;
    --art-muted-line: #64748b;
    --art-panel-tint: #1e293b;
    --font-family: 'Inter', 'Segoe UI', 'Kalam', Roboto, Helvetica, Arial, sans-serif;
    --radius-xl: 16px;
    --font-family-headline: 'Inter', 'Segoe UI', 'Kalam', Roboto, Helvetica, Arial, sans-serif;
    --font-family-body: 'Inter', 'Segoe UI', 'Kalam', Roboto, Helvetica, Arial, sans-serif;
    --font-heading: 'Inter', 'Segoe UI', 'Kalam', Roboto, Helvetica, Arial, sans-serif;
    --font-body: 'Inter', 'Segoe UI', 'Kalam', Roboto, Helvetica, Arial, sans-serif;
    --font-size-h1: 56px;
    --font-size-h2: 40px;
    --font-size-h3: 28px;
    --font-size-body: 24px;
    --font-size-caption: 18px;
    --secondary-text: var(--muted-text);
    --panel-border: var(--border);
    --font-weight-normal: 400;
    --font-weight-medium: 500;
    --font-weight-semibold: 600;
    --font-weight-bold: 700;
    --spacing-gutter-pct: 0.07;
    --spacing-top-pct: 0.15;
    --spacing-bottom-pct: 0.07;
    --spacing-title-y-pct: 0.055;
    --accent-1: #22d3ee;
    --accent-2: #38bdf8;
    --accent-3: #60a5fa;
    --accent-4: #818cf8;
    --accent-5: #a78bfa;
    --accent-6: #2dd4bf;
}
:root[data-theme="dark"] {
    --background: #0f172a;
    --panel: #1e293b;
    --primary-text: #f1f5f9;
    --muted-text: #94a3b8;
    --inverse-text: #0f172a;
    --border: #334155;
    --shadow-color: #000000;
    --icon-pad-bg: #1e293b;
    --art-glow: #7dd3fc;
    --art-glow-opacity: 0.18;
    --art-sheen: #ffffff;
    --art-sheen-opacity: 0.18;
    --art-shadow: #000000;
    --art-shadow-opacity: 0.28;
    --art-muted-line: #64748b;
    --art-panel-tint: #1e293b;
    --accent-1: #22d3ee;
    --accent-2: #38bdf8;
    --accent-3: #60a5fa;
    --accent-4: #818cf8;
    --accent-5: #a78bfa;
    --accent-6: #2dd4bf;
}
:root[data-theme="light"] {
    --background: #f8fafc;
    --panel: #ffffff;
    --primary-text: #0f172a;
    --muted-text: #64748b;
    --inverse-text: #ffffff;
    --border: #e2e8f0;
    --shadow-color: #000000;
    --icon-pad-bg: #1e293b;
    --art-glow: #0891b2;
    --art-glow-opacity: 0.10;
    --art-sheen: #ffffff;
    --art-sheen-opacity: 0.34;
    --art-shadow: #0f172a;
    --art-shadow-opacity: 0.14;
    --art-muted-line: #94a3b8;
    --art-panel-tint: #f1f5f9;
    --accent-1: #0891b2;
    --accent-2: #0284c7;
    --accent-3: #2563eb;
    --accent-4: #4f46e5;
    --accent-5: #7c3aed;
    --accent-6: #0d9488;
}</style>
  <rect x="0" y="0" width="1.92E+3" height="1.08E+3" fill="#252a34" stroke="none" id="programmatic_background"/>
  <line id="HEADER_DECOR" x1="960.0" x2="1080.0" y1="127.0" y2="127.0" stroke="var(--accent-1)" stroke-width="6" stroke-linecap="round"/>
  <defs>
    <pattern id="svg273f1986-napkin-hatch" patternUnits="userSpaceOnUse" width="12" height="12">
      <path d="M -3 12 L 12 -3 M 0 15 L 15 0" fill="none" stroke="var(--primary-text)" stroke-width="1" stroke-opacity="0.05"/>
    </pattern>
    <filter id="svg273f1986-shadow" x="-30%" y="-30%" width="160%" height="160%">
      <feDropShadow dx="0" dy="3" stdDeviation="6" flood-color="#000000" flood-opacity="0.10"/>
      <feDropShadow dx="0" dy="8" stdDeviation="12" flood-color="#000000" flood-opacity="0.16"/>
    </filter>
    <radialGradient id="svg273f1986-universal-edge-vignette" cx="50%" cy="50%" r="72%">
      <stop offset="0%" stop-color="var(--background)" stop-opacity="0"/>
      <stop offset="72%" stop-color="var(--background)" stop-opacity="0.12"/>
      <stop offset="100%" stop-color="var(--primary-text)" stop-opacity="0.08"/>
    </radialGradient>
    <linearGradient id="svg273f1986-universal-surface-sheen" x1="0%" y1="0%" x2="100%" y2="100%">
      <stop offset="0%" stop-color="var(--art-sheen)" stop-opacity="var(--art-sheen-opacity)"/>
      <stop offset="46%" stop-color="var(--art-sheen)" stop-opacity="0.035"/>
      <stop offset="100%" stop-color="var(--art-panel-tint)" stop-opacity="0.14"/>
    </linearGradient>
    <radialGradient id="svg273f1986-universal-icon-aura" cx="50%" cy="42%" r="64%">
      <stop offset="0%" stop-color="var(--art-glow)" stop-opacity="var(--art-glow-opacity)"/>
      <stop offset="100%" stop-color="var(--background)" stop-opacity="0"/>
    </radialGradient>
    <filter id="svg273f1986-text-glow" x="-20%" y="-20%" width="140%" height="140%">
      <feDropShadow dx="0" dy="0" stdDeviation="2" flood-color="#000000" flood-opacity="0.4"/>
    </filter>
    <marker id="svg273f1986-arrowhead" markerWidth="10" markerHeight="7" refX="9" refY="3.5" orient="auto" markerUnits="strokeWidth">
      <polygon points="0 0, 10 3.5, 0 7" fill="var(--muted-text)" opacity="0.6"/>
    </marker>
  </defs>
  <rect width="100%" height="100%" fill="var(--background)" id="CANVAS_BG"/>
  <rect width="100%" height="100%" fill="url(#svg273f1986-napkin-hatch)"/>
  <rect id="UNIVERSAL_EDGE_VIGNETTE" width="100%" height="100%" fill="url(#svg273f1986-universal-edge-vignette)" opacity="0.62"/>
  <text id="TITLE" x="960.0" y="59" text-anchor="middle" font-size="60" font-weight="800" fill="#f1f5f9" style="font-size: 60px; font-family: Inter, Segoe UI, Kalam, Roboto, Helvetica, Arial, sans-serif; font-weight: 700; letter-spacing:-1.2px;" data-final-font-size="60">
    <tspan x="960.0" dy="68.00px">TNT Area Historical Evolution</tspan>
  </text>
  <rect id="TITLE_FRAME" x="134" y="54" width="1652" height="100" fill="none"/>
  <rect x="150" y="150" width="1620" height="850" rx="40" fill="var(--panel)" fill-opacity="0.18" stroke="var(--muted-text)" stroke-width="2" opacity="0.90"/>
  <line x1="360" y1="212.0" x2="360" y2="938.0" stroke="var(--muted-text)" stroke-width="18" stroke-linecap="round" opacity="0.18"/>
  <line x1="360" y1="212.0" x2="360" y2="938.0" stroke="var(--border)" stroke-width="3" stroke-linecap="round" opacity="0.72"/>
  <g id="DIAGRAM_MAIN">
    <g filter="url(#svg273f1986-shadow)">
      <line x1="404.0" y1="240.0" x2="420.0" y2="240.0" stroke="var(--accent-1)" stroke-width="5" opacity="0.76" stroke-linecap="round"/>
      <rect id="ITEM_1_BG" x="420.0" y="174.0" width="1085" height="152" rx="22" fill="var(--panel)" fill-opacity="0.97" stroke="var(--accent-1)" stroke-width="2.5"/>
      <rect x="420.0" y="174.0" width="1085" height="152" rx="16" fill="url(#svg273f1986-universal-surface-sheen)" opacity="0.88"/>
      <rect x="420.0" y="174.0" width="14" height="132" rx="7" fill="var(--accent-1)" fill-opacity="0.90"/>
      <circle id="ITEM_1_PAD" cx="360" cy="240.0" r="46" fill="var(--icon-pad-bg)" opacity="0.95" fill-opacity="0.9" stroke-width="2" stroke="var(--primary-text)"/>
      <circle id="ITEM_1_PAD_INNER" cx="360" cy="240.0" r="35.88" fill="var(--accent-4)" fill-opacity="0.22"/>
      <circle cx="360" cy="240.0" r="38" fill="none" stroke="var(--accent-1)" stroke-width="3" stroke-dasharray="6 4"/>
      <g id="ITEM_1_ICON" transform="translate(324, 204.0)" data-icon-size="72" stroke-dasharray="6 4">
        <g transform="translate(-5.142857142857143,-6.428571428571431) scale(2.5714285714285716)">
          <path d="M28 15H28.4957C28.7781 15 29 14.7745 29 14.5C29 14.2255 28.768 14 28.4856 14H15.5144C15.232 14 15 14.2255 15 14.5C15 14.7745 15.232 15 15.5144 15H16V18H15.5144C15.232 18 15 18.2255 15 18.5C15 18.7745 15.232 19 15.5144 19H28.4856C28.768 19 29 18.7745 29 18.5C29 18.2255 28.768 18 28.4856 18H28V15Z" fill="#F8312F"/>
          <path d="M28.01 28H3.99C2.89 28 2 28.8945 2 30H30C30 28.8945 29.11 28 28.01 28Z" fill="#F8312F"/>
          <path d="M23.98 11.0299C23.98 12.1299 23.08 13.0299 21.98 13.0299C20.88 13.0299 19.98 12.1299 19.98 11.0299C19.98 10.7499 20.21 10.5299 20.48 10.5299C20.76 10.5299 20.98 10.7499 20.98 11.0299C20.98 11.5799 21.43 12.0299 21.98 12.0299C22.53 12.0299 22.98 11.5799 22.98 11.0299C22.98 10.4799 22.55 10.0399 22 10.0299C21.83 10.0299 21.67 9.93987 21.58 9.79987C21.52 9.71987 21.49 9.62987 21.49 9.52987C21.49 9.48987 21.49 9.45986 21.5 9.41986V4.35986C21.5 4.08986 21.73 3.85986 22 3.85986C22.28 3.85986 22.5 4.08986 22.5 4.35986V9.08987C23.35 9.31987 23.98 10.1099 23.98 11.0299Z" fill="#9B9B9B"/>
          <path d="M23.0909 4H20.9091C20.404 4 20 4.44445 20 5C20 5.55556 20.404 6 20.9091 6H23.0909C23.596 6 24 5.55556 24 5C24 4.44445 23.596 4 23.0909 4Z" fill="#F8312F"/>
          <path d="M28 15H16V18H28V15Z" fill="#FF6723"/>
          <path d="M16.7 19.48C16.79 19.54 16.89 19.57 16.99 19.57C17.15 19.57 17.3 19.5 17.4 19.36L21.98 12.8893L26.56 19.36C26.66 19.5 26.81 19.57 26.97 19.57C27.07 19.57 27.17 19.54 27.26 19.48C27.49 19.32 27.54 19.01 27.38 18.78L22.4141 11.7641C22.3927 11.7281 22.3664 11.6944 22.3353 11.664C22.2394 11.5663 22.1109 11.516 21.98 11.5169C21.8492 11.516 21.7207 11.5663 21.6248 11.6638C21.5936 11.6943 21.5673 11.728 21.5458 11.7641L16.58 18.78C16.42 19.01 16.47 19.32 16.7 19.48Z" fill="#212121"/>
          <path d="M5 3H27C27.5523 3 28 3.44772 28 4C28 4.55228 27.5523 5 27 5H14V26H14.75C15.4404 26 16 26.5596 16 27.25V28H5V27.25C5 26.5596 5.55964 26 6.25 26H7V5H5C4.44772 5 4 4.55228 4 4C4 3.44772 4.44772 3 5 3ZM8 9.19098L12.382 7H8V9.19098ZM13 26V23.809L8.61803 26H13ZM8 25.191L12.382 23H8V25.191ZM13 7.80902L8.61803 10H13V7.80902ZM8 13.191L12.382 11H8V13.191ZM13 11.809L8.61803 14H13V11.809ZM8 17.191L12.382 15H8V17.191ZM13 15.809L8.61803 18H13V15.809ZM8 21.191L12.382 19H8V21.191ZM13 19.809L8.61803 22H13V19.809Z" fill="#FFB02E"/>
        </g>
      </g>
      <text id="ITEM_1_HEAD" x="500.0" y="192.0" text-anchor="start" font-weight="800" font-size="30" fill="var(--accent-4)" data-bg-id="ITEM_1_BG" fill-opacity="1.0" stroke="none" style="font-size: 30px; font-family: Inter, Segoe UI, Kalam, Roboto, Helvetica, Arial, sans-serif; font-weight: 700; letter-spacing:-0.4px;" data-final-font-size="30">
        <tspan x="500.0" dy="24.25px">WWII Construction</tspan>
      </text>
      <rect id="ITEM_1_HEAD_FRAME" x="500" y="192.0" width="760" height="32" fill="none"/>
      <text id="ITEM_1_BODY" x="500.0" y="230.0" text-anchor="start" font-size="24" fill="var(--primary-text)" data-bg-id="ITEM_1_BG" style="font-size: 26px; font-family: Inter, Segoe UI, Kalam, Roboto, Helvetica, Arial, sans-serif; font-weight: 400;" data-final-font-size="26">
        <tspan x="500.0" dy="29.22px">Site established in 1942 as an ordnance works facility</tspan>
      </text>
      <rect id="ITEM_1_BODY_FRAME" x="500" y="230.0" width="860" height="72" fill="none"/>
      <text x="1460" y="216.0" text-anchor="end" font-size="18" font-weight="800" fill="var(--accent-1)" opacity="0.70">01</text>
    </g>
    <g filter="url(#svg273f1986-shadow)">
      <line x1="404.0" y1="463.3" x2="420.0" y2="463.3" stroke="var(--accent-2)" stroke-width="5" opacity="0.76" stroke-linecap="round"/>
      <rect id="ITEM_2_BG" x="420.0" y="397.3" width="1085" height="152" rx="22" fill="var(--panel)" fill-opacity="0.97" stroke="var(--accent-2)" stroke-width="2.5"/>
      <rect x="420.0" y="397.3" width="1085" height="152" rx="16" fill="url(#svg273f1986-universal-surface-sheen)" opacity="0.88"/>
      <rect x="420.0" y="397.3" width="14" height="132" rx="7" fill="var(--accent-2)" fill-opacity="0.90"/>
      <circle id="ITEM_2_PAD" cx="360" cy="463.3" r="46" fill="var(--icon-pad-bg)" opacity="0.95" fill-opacity="0.9" stroke-width="2" stroke="var(--primary-text)"/>
      <circle id="ITEM_2_PAD_INNER" cx="360" cy="463.3" r="35.88" fill="var(--accent-5)" fill-opacity="0.22"/>
      <circle cx="360" cy="463.3" r="38" fill="none" stroke="var(--accent-2)" stroke-width="3" stroke-dasharray="6 4"/>
      <g id="ITEM_2_ICON" transform="translate(324, 427.3)" data-icon-size="72" stroke-dasharray="6 4">
        <g transform="translate(-4.778761061946904,-3.823008849557522) scale(3.398230088495575)" vector-effect="non-scaling-stroke" stroke-width="2.58" stroke-linecap="round" stroke-linejoin="round" stroke-opacity="1.0">
          <path d="M3.03919 4.2939C3.01449 4.10866 3.0791 3.92338 3.23133 3.81499C3.9272 3.31953 6.3142 2 12 2C17.6858 2 20.0728 3.31952 20.7687 3.81499C20.9209 3.92338 20.9855 4.10866 20.9608 4.2939L19.2616 17.0378C19.0968 18.2744 18.3644 19.3632 17.2813 19.9821L16.9614 20.1649C13.8871 21.9217 10.1129 21.9217 7.03861 20.1649L6.71873 19.9821C5.6356 19.3632 4.90325 18.2744 4.73838 17.0378L3.03919 4.2939Z" stroke="#f1f5f9" vector-effect="non-scaling-stroke" fill="none"/>
          <path d="M3 5C5.57143 7.66666 18.4286 7.66662 21 5" stroke="#f1f5f9" vector-effect="non-scaling-stroke" fill="none"/>
        </g>
      </g>
      <text id="ITEM_2_HEAD" x="500.0" y="415.3" text-anchor="start" font-weight="800" font-size="30" fill="var(--accent-5)" data-bg-id="ITEM_2_BG" fill-opacity="1.0" stroke="none" style="font-size: 30px; font-family: Inter, Segoe UI, Kalam, Roboto, Helvetica, Arial, sans-serif; font-weight: 700; letter-spacing:-0.4px;" data-final-font-size="30">
        <tspan x="500.0" dy="24.25px">War Production</tspan>
      </text>
      <rect id="ITEM_2_HEAD_FRAME" x="500" y="415.3" width="760" height="32" fill="none"/>
      <text id="ITEM_2_BODY" x="500.0" y="453.3" text-anchor="start" font-size="24" fill="var(--primary-text)" data-bg-id="ITEM_2_BG" style="font-size: 26px; font-family: Inter, Segoe UI, Kalam, Roboto, Helvetica, Arial, sans-serif; font-weight: 400;" data-final-font-size="26">
        <tspan x="500.0" dy="29.22px">Facility manufactured and stored munitions across thousands of acres</tspan>
      </text>
      <rect id="ITEM_2_BODY_FRAME" x="500" y="453.3" width="860" height="72" fill="none"/>
      <text x="1460" y="439.3" text-anchor="end" font-size="18" font-weight="800" fill="var(--accent-2)" opacity="0.70">02</text>
    </g>
    <g filter="url(#svg273f1986-shadow)">
      <line x1="404.0" y1="686.7" x2="420.0" y2="686.7" stroke="var(--accent-3)" stroke-width="5" opacity="0.76" stroke-linecap="round"/>
      <rect id="ITEM_3_BG" x="420.0" y="620.7" width="1085" height="152" rx="22" fill="var(--panel)" fill-opacity="0.97" stroke="var(--accent-3)" stroke-width="2.5"/>
      <rect x="420.0" y="620.7" width="1085" height="152" rx="16" fill="url(#svg273f1986-universal-surface-sheen)" opacity="0.88"/>
      <rect x="420.0" y="620.7" width="14" height="132" rx="7" fill="var(--accent-3)" fill-opacity="0.90"/>
      <circle id="ITEM_3_PAD" cx="360" cy="686.7" r="46" fill="var(--icon-pad-bg)" opacity="0.95" fill-opacity="0.9" stroke-width="2" stroke="var(--primary-text)"/>
      <circle id="ITEM_3_PAD_INNER" cx="360" cy="686.7" r="35.88" fill="var(--accent-6)" fill-opacity="0.22"/>
      <circle cx="360" cy="686.7" r="38" fill="none" stroke="var(--accent-3)" stroke-width="3" stroke-dasharray="6 4"/>
      <g id="ITEM_3_ICON" transform="translate(324, 650.7)" data-icon-size="72" stroke-dasharray="6 4">
        <g transform="translate(-2.4,-2.4) scale(0.15)" vector-effect="non-scaling-stroke" fill="#f1f5f9" fill-opacity="1.0" stroke="none">
          <path fill="#f1f5f9" d="m494 18.02l-101 .103V119h101zm-119 .12l-56.29 12.065l-31.01 64.361l-101.534-35.952L137 119h238zM18 137v61.63l12.416 31.981L62.575 247H247V137zm247 0v110h229V137zM76.294 322.591L18 332.203V375h101V265H65.317zM137 265v110h238c-48.428-109.932-.057-1.24-48.222-110zM18 393v100.98l199-.236L247 393zm247 0v55.79c66.067 45.222-.134-.028 65.798 44.869L494 493.49V393z" vector-effect="non-scaling-stroke" stroke="none"/>
        </g>
      </g>
      <text id="ITEM_3_HEAD" x="500.0" y="638.7" text-anchor="start" font-weight="800" font-size="30" fill="var(--accent-6)" data-bg-id="ITEM_3_BG" fill-opacity="1.0" stroke="none" style="font-size: 30px; font-family: Inter, Segoe UI, Kalam, Roboto, Helvetica, Arial, sans-serif; font-weight: 700; letter-spacing:-0.4px;" data-final-font-size="30">
        <tspan x="500.0" dy="24.25px">Post-War Abandonment</tspan>
      </text>
      <rect id="ITEM_3_HEAD_FRAME" x="500" y="638.7" width="760" height="32" fill="none"/>
      <text id="ITEM_3_BODY" x="500.0" y="676.7" text-anchor="start" font-size="24" fill="var(--primary-text)" data-bg-id="ITEM_3_BG" style="font-size: 26px; font-family: Inter, Segoe UI, Kalam, Roboto, Helvetica, Arial, sans-serif; font-weight: 400;" data-final-font-size="26">
        <tspan x="500.0" dy="29.22px">Production ceased in 1945 leaving behind industrial ruins</tspan>
      </text>
      <rect id="ITEM_3_BODY_FRAME" x="500" y="676.7" width="860" height="72" fill="none"/>
      <text x="1460" y="662.7" text-anchor="end" font-size="18" font-weight="800" fill="var(--accent-3)" opacity="0.70">03</text>
    </g>
    <g filter="url(#svg273f1986-shadow)">
      <line x1="404.0" y1="910.0" x2="420.0" y2="910.0" stroke="var(--accent-4)" stroke-width="5" opacity="0.76" stroke-linecap="round"/>
      <rect id="ITEM_4_BG" x="420.0" y="844.0" width="1085" height="152" rx="22" fill="var(--panel)" fill-opacity="0.97" stroke="var(--accent-4)" stroke-width="2.5"/>
      <rect x="420.0" y="844.0" width="1085" height="152" rx="16" fill="url(#svg273f1986-universal-surface-sheen)" opacity="0.88"/>
      <rect x="420.0" y="844.0" width="14" height="132" rx="7" fill="var(--accent-4)" fill-opacity="0.90"/>
      <circle id="ITEM_4_PAD" cx="360" cy="910.0" r="46" fill="var(--icon-pad-bg)" opacity="0.95" fill-opacity="0.9" stroke-width="2" stroke="var(--primary-text)"/>
      <circle id="ITEM_4_PAD_INNER" cx="360" cy="910.0" r="35.88" fill="var(--accent-1)" fill-opacity="0.22"/>
      <circle cx="360" cy="910.0" r="38" fill="none" stroke="var(--accent-4)" stroke-width="3" stroke-dasharray="6 4"/>
      <g id="ITEM_4_ICON" transform="translate(324, 874.0)" data-icon-size="72" stroke-dasharray="6 4">
        <g transform="translate(-5.142857142857143,-5.78571428571429) scale(2.5714285714285716)">
          <path d="M21.1656 26.5709V25.9922L18.4291 25.9922C16.536 25.9922 15 27.5282 15 29.4213V29.6152C15 29.8276 15.1724 30 15.3848 30H17.7365C19.6296 30 21.1656 28.464 21.1656 26.5709Z" fill="#00D26A"/>
          <path d="M2 19.0898L30 7.89453V12.8945L14.5052 18.9727H30V24.0898H22.5707C22.4172 24.0898 22.3628 24.293 22.4957 24.3697L24.2227 25.3668C25.5324 26.123 24.9959 28.125 23.4837 28.125C23.2242 28.125 22.9693 28.0567 22.7446 27.927L17.2588 24.7597C16.4987 24.3209 15.6365 24.0898 14.7588 24.0898H2V19.0898Z" fill="#7D4533"/>
          <rect x="8.14288" y="5.81055" width="15.7142" height="9.70895" rx="4.85447" fill="#B97028"/>
          <path d="M12.8572 15.5195H19.1429C21.3841 15.5195 23.2601 13.9089 23.7389 11.7504C23.3373 10.1939 21.9594 9.04688 20.3214 9.04688L16.5312 11.3749L11.6786 9.04688C10.0406 9.04688 8.66275 10.1939 8.26117 11.7504C8.73992 13.9089 10.6159 15.5195 12.8572 15.5195Z" fill="#7D4533"/>
          <path d="M15.9342 7.00977C15.0797 7.00977 14.2785 7.43534 13.7997 8.14019L13.7565 8.20336C12.8023 9.60973 12.3701 11.3054 12.533 12.9943L12.5596 13.2603C12.7258 14.9925 14.182 16.3124 15.9209 16.3124C17.6664 16.3124 19.1226 14.9859 19.2822 13.247L19.3122 12.9378C19.4717 11.2355 19.0262 9.52994 18.0554 8.12356C17.5733 7.42869 16.782 7.00977 15.9342 7.00977Z" fill="#00A6ED"/>
          <path d="M9.12611 10.0699C9.38084 9.33783 9.98468 8.77525 10.7355 8.57408C11.4804 8.37448 12.2743 8.55627 12.8615 9.05332C14.0456 10.0605 14.8387 11.4542 15.0992 12.9875L15.1457 13.2662C15.4149 14.8317 14.4477 16.3401 12.914 16.7511C11.3861 17.1605 9.79581 16.3436 9.24192 14.8607L9.15593 14.6332C8.61514 13.1876 8.5957 11.5959 9.10301 10.1356L9.12611 10.0699Z" fill="#26C9FC"/>
          <path d="M19.1899 9.07061C19.7765 8.564 20.5808 8.37872 21.3315 8.57989C22.0765 8.7795 22.6731 9.33388 22.9331 10.0579C23.455 11.5222 23.4449 13.1258 22.9039 14.5839L22.8048 14.8486C22.2552 16.3388 20.6634 17.1616 19.1297 16.7506C17.6018 16.3412 16.633 14.8386 16.8948 13.2775L16.934 13.0375C17.1885 11.5151 17.9675 10.127 19.1371 9.11594L19.1899 9.07061Z" fill="#26C9FC"/>
          <path fill-rule="evenodd" clip-rule="evenodd" d="M21.7532 2.84086C21.5932 3.0659 21.6459 3.37807 21.8709 3.53811C22.7372 4.15422 23.7215 5.42572 24.5162 7.0925C22.7912 5.15108 19.5951 2.99219 14.3437 2.99219C14.0676 2.99219 13.8437 3.21605 13.8437 3.49219C13.8437 3.76833 14.0676 3.99219 14.3437 3.99219C16.7662 3.99219 18.7068 4.47743 20.2388 5.17859C19.6789 5.06248 19.0989 5.00146 18.5047 5.00146H13.4954C11.3849 5.00146 9.45408 5.77109 7.9684 7.04501C8.63358 6.14159 9.38725 5.43775 10.0984 4.93054C10.3232 4.7702 10.3755 4.45796 10.2151 4.23314C10.0548 4.00832 9.74252 3.95606 9.5177 4.11641C7.40358 5.62429 4.98663 8.67192 4.98663 13.2862C4.98663 13.3267 4.99146 13.3661 5.00056 13.4039C5.00023 13.4348 5.00006 13.4658 5.00006 13.4968C5.00006 18.1886 8.80356 21.9921 13.4954 21.9921H18.5047C23.1965 21.9921 27 18.1886 27 13.4968C27 13.3754 26.9975 13.2546 26.9924 13.1344C26.9544 10.9175 26.3656 8.7349 25.538 6.91782C24.6875 5.0505 23.5576 3.51061 22.4505 2.7232C22.2254 2.56315 21.9133 2.61583 21.7532 2.84086ZM12.9974 5.81055C10.3163 5.81055 8.14288 7.98398 8.14288 10.665C8.14288 13.3461 10.3163 15.5195 12.9974 15.5195H14.5835C16.6844 15.3281 18.9607 14.6838 20.795 12.6726C20.9811 12.4686 21.2973 12.454 21.5014 12.6401C21.7054 12.8262 21.7199 13.1424 21.5338 13.3465C20.6243 14.3437 19.6199 15.0376 18.589 15.5195H19.0027C21.6837 15.5195 23.8571 13.3461 23.8571 10.665C23.8571 7.98398 21.6837 5.81055 19.0026 5.81055H12.9974Z" fill="#F3AD61"/>
        </g>
      </g>
      <text id="ITEM_4_HEAD" x="500.0" y="862.0" text-anchor="start" font-weight="800" font-size="30" fill="var(--accent-1)" data-bg-id="ITEM_4_BG" fill-opacity="1.0" stroke="none" style="font-size: 30px; font-family: Inter, Segoe UI, Kalam, Roboto, Helvetica, Arial, sans-serif; font-weight: 700; letter-spacing:-0.4px;" data-final-font-size="30">
        <tspan x="500.0" dy="24.25px">Wildlife Reclamation</tspan>
      </text>
      <rect id="ITEM_4_HEAD_FRAME" x="500" y="862.0" width="760" height="32" fill="none"/>
      <text id="ITEM_4_BODY" x="500.0" y="900.0" text-anchor="start" font-size="24" fill="var(--primary-text)" data-bg-id="ITEM_4_BG" style="font-size: 26px; font-family: Inter, Segoe UI, Kalam, Roboto, Helvetica, Arial, sans-serif; font-weight: 400;" data-final-font-size="26">
        <tspan x="500.0" dy="29.22px">Site transitioned into a wildlife management area habitat</tspan>
      </text>
      <rect id="ITEM_4_BODY_FRAME" x="500" y="900.0" width="860" height="72" fill="none"/>
      <text x="1460" y="886.0" text-anchor="end" font-size="18" font-weight="800" fill="var(--accent-4)" opacity="0.70">04</text>
    </g>
  </g>
</svg>
