<?xml version='1.0' encoding='utf-8'?>
<svg xmlns="http://www.w3.org/2000/svg" width="1920" height="1080" viewBox="0 0 1920 1080" data-theme="light">
  <style>
        @font-face {
            font-family: 'Inter';
            src: url('assets/fonts/Inter-Regular.ttf') format('truetype');
            font-weight: 400;
            font-style: normal;
            font-display: swap;
        }
        @font-face {
            font-family: 'Inter';
            src: url('assets/fonts/Inter-Bold.ttf') format('truetype');
            font-weight: 600;
            font-style: normal;
            font-display: swap;
        }
        @font-face {
            font-family: 'Inter';
            src: url('assets/fonts/Inter-Bold.ttf') format('truetype');
            font-weight: 800;
            font-style: normal;
            font-display: swap;
        }
        
:root {
    --background: #f8fafc;
    --panel: #ffffff;
    --primary-text: #0f172a;
    --muted-text: #64748b;
    --inverse-text: #ffffff;
    --border: #e2e8f0;
    --shadow-color: #000000;
    --icon-pad-bg: #1e293b;
    --art-glow: #0891b2;
    --art-glow-opacity: 0.10;
    --art-sheen: #ffffff;
    --art-sheen-opacity: 0.34;
    --art-shadow: #0f172a;
    --art-shadow-opacity: 0.14;
    --art-muted-line: #94a3b8;
    --art-panel-tint: #f1f5f9;
    --font-family: 'Inter', 'Segoe UI', 'Kalam', Roboto, Helvetica, Arial, sans-serif;
    --radius-xl: 16px;
    --font-family-headline: 'Inter', 'Segoe UI', 'Kalam', Roboto, Helvetica, Arial, sans-serif;
    --font-family-body: 'Inter', 'Segoe UI', 'Kalam', Roboto, Helvetica, Arial, sans-serif;
    --font-heading: 'Inter', 'Segoe UI', 'Kalam', Roboto, Helvetica, Arial, sans-serif;
    --font-body: 'Inter', 'Segoe UI', 'Kalam', Roboto, Helvetica, Arial, sans-serif;
    --font-size-h1: 56px;
    --font-size-h2: 40px;
    --font-size-h3: 28px;
    --font-size-body: 24px;
    --font-size-caption: 18px;
    --secondary-text: var(--muted-text);
    --panel-border: var(--border);
    --font-weight-normal: 400;
    --font-weight-medium: 500;
    --font-weight-semibold: 600;
    --font-weight-bold: 700;
    --spacing-gutter-pct: 0.07;
    --spacing-top-pct: 0.15;
    --spacing-bottom-pct: 0.07;
    --spacing-title-y-pct: 0.055;
    --accent-1: #0891b2;
    --accent-2: #db2777;
    --accent-3: #ca8a04;
    --accent-4: #65a30d;
    --accent-5: #ea580c;
    --accent-6: #9333ea;
}
:root[data-theme="dark"] {
    --background: #0f172a;
    --panel: #1e293b;
    --primary-text: #f1f5f9;
    --muted-text: #94a3b8;
    --inverse-text: #0f172a;
    --border: #334155;
    --shadow-color: #000000;
    --icon-pad-bg: #1e293b;
    --art-glow: #7dd3fc;
    --art-glow-opacity: 0.18;
    --art-sheen: #ffffff;
    --art-sheen-opacity: 0.18;
    --art-shadow: #000000;
    --art-shadow-opacity: 0.28;
    --art-muted-line: #64748b;
    --art-panel-tint: #1e293b;
    --accent-1: #22d3ee;
    --accent-2: #f472b6;
    --accent-3: #facc15;
    --accent-4: #a3e635;
    --accent-5: #fb923c;
    --accent-6: #c084fc;
}
:root[data-theme="light"] {
    --background: #f8fafc;
    --panel: #ffffff;
    --primary-text: #0f172a;
    --muted-text: #64748b;
    --inverse-text: #ffffff;
    --border: #e2e8f0;
    --shadow-color: #000000;
    --icon-pad-bg: #1e293b;
    --art-glow: #0891b2;
    --art-glow-opacity: 0.10;
    --art-sheen: #ffffff;
    --art-sheen-opacity: 0.34;
    --art-shadow: #0f172a;
    --art-shadow-opacity: 0.14;
    --art-muted-line: #94a3b8;
    --art-panel-tint: #f1f5f9;
    --accent-1: #0891b2;
    --accent-2: #db2777;
    --accent-3: #ca8a04;
    --accent-4: #65a30d;
    --accent-5: #ea580c;
    --accent-6: #9333ea;
}</style>
  <rect x="0" y="0" width="1.92E+3" height="1.08E+3" fill="#252a34" stroke="none" id="programmatic_background"/>
  <line id="HEADER_DECOR" x1="960.0" x2="1080.0" y1="135.0" y2="135.0" stroke="var(--accent-1)" stroke-width="6" stroke-linecap="round"/>
  <defs>
    <pattern id="svg6e7367f1-napkin-hatch" patternUnits="userSpaceOnUse" width="12" height="12">
      <path d="M -3 12 L 12 -3 M 0 15 L 15 0" fill="none" stroke="var(--primary-text)" stroke-width="1" stroke-opacity="0.05"/>
    </pattern>
    <filter id="svg6e7367f1-shadow" x="-30%" y="-30%" width="160%" height="160%">
      <feDropShadow dx="0" dy="2" stdDeviation="3" flood-color="#000000" flood-opacity="0.08"/>
      <feDropShadow dx="0" dy="6" stdDeviation="10" flood-color="#000000" flood-opacity="0.12"/>
    </filter>
    <marker id="svg6e7367f1-arrowhead" markerWidth="10" markerHeight="10" refX="9" refY="5" orient="auto">
      <path d="M 0 0 L 10 5 L 0 10 Z" fill="var(--accent-1)"/>
    </marker>
    <filter id="svg6e7367f1-text-glow" x="-20%" y="-20%" width="140%" height="140%">
      <feDropShadow dx="0" dy="0" stdDeviation="2" flood-color="#000000" flood-opacity="0.4"/>
    </filter>
    <radialGradient id="svg6e7367f1-universal-edge-vignette" cx="50%" cy="50%" r="72%">
      <stop offset="0%" stop-color="var(--background)" stop-opacity="0"/>
      <stop offset="72%" stop-color="var(--background)" stop-opacity="0.12"/>
      <stop offset="100%" stop-color="var(--primary-text)" stop-opacity="0.08"/>
    </radialGradient>
    <linearGradient id="svg6e7367f1-universal-surface-sheen" x1="0%" y1="0%" x2="100%" y2="100%">
      <stop offset="0%" stop-color="var(--art-sheen)" stop-opacity="var(--art-sheen-opacity)"/>
      <stop offset="46%" stop-color="var(--art-sheen)" stop-opacity="0.035"/>
      <stop offset="100%" stop-color="var(--art-panel-tint)" stop-opacity="0.14"/>
    </linearGradient>
    <radialGradient id="svg6e7367f1-universal-icon-aura" cx="50%" cy="42%" r="64%">
      <stop offset="0%" stop-color="var(--art-glow)" stop-opacity="var(--art-glow-opacity)"/>
      <stop offset="100%" stop-color="var(--background)" stop-opacity="0"/>
    </radialGradient>
  </defs>
  <rect width="100%" height="100%" fill="var(--background)" id="CANVAS_BG"/>
  <rect width="100%" height="100%" fill="url(#svg6e7367f1-napkin-hatch)"/>
  <rect id="UNIVERSAL_EDGE_VIGNETTE" width="100%" height="100%" fill="url(#svg6e7367f1-universal-edge-vignette)" opacity="0.62"/>
  <text id="TITLE" x="960.0" y="59" text-anchor="middle" font-weight="700" font-size="72" fill="#0f172a" style="font-size: 60px; font-family: Inter, Segoe UI, Kalam, Roboto, Helvetica, Arial, sans-serif; font-weight: 700; letter-spacing:-1.2px;" data-final-font-size="60">
    <tspan x="960.0" dy="68.00px">Evidence for Ground-Level Redistribution</tspan>
  </text>
  <rect id="TITLE_FRAME" x="134" y="59" width="1652" height="103" fill="none"/>
  <g id="DIAGRAM_SCALER" transform="translate(28.8, 27.0) scale(0.97)">
    <path d="M 960 360 L 960 450" stroke="var(--muted-text)" stroke-width="3.0" fill="none" opacity="0.52"/>
    <path d="M 210.0 450 L 1710.0 450" stroke="var(--muted-text)" stroke-width="3.0" fill="none" opacity="0.52"/>
    <path d="M 210.0 450 L 210.0 570" stroke="var(--muted-text)" stroke-width="3.0" fill="none" opacity="0.52"/>
    <path d="M 693.3 450 L 693.3 570" stroke="var(--muted-text)" stroke-width="3.0" fill="none" opacity="0.52"/>
    <path d="M 1226.7 450 L 1226.7 570" stroke="var(--muted-text)" stroke-width="3.0" fill="none" opacity="0.52"/>
    <path d="M 1710.0 450 L 1710.0 570" stroke="var(--muted-text)" stroke-width="3.0" fill="none" opacity="0.52"/>
    <g transform="translate(960.0, 270.0)">
      <rect id="ITEM_1_BG" x="-210" y="-90" width="420" height="180" rx="24" fill="var(--panel)" fill-opacity="0.86" stroke="var(--primary-text)" stroke-width="2.6"/>
      <circle id="ITEM_1_PAD" cx="0" cy="40" r="42" fill="var(--icon-pad-bg)" stroke="var(--primary-text)" opacity="0.9" fill-opacity="0.9" stroke-width="2"/>
      <circle id="ITEM_1_PAD_INNER" cx="0" cy="40" r="32.76" fill="var(--accent-5)" fill-opacity="0.22"/>
      <circle cx="0" cy="40" r="33.6" fill="none" stroke="var(--accent-1)" stroke-width="3" stroke-dasharray="6 4"/>
      <g id="ITEM_1_ICON" transform="translate(-36.0, 4.0)" data-icon-size="72">
        <g transform="translate(-8.307692307692308,-8.307692307692308) scale(3.6923076923076925)" vector-effect="non-scaling-stroke" stroke-width="2.58" stroke-linecap="round" stroke-linejoin="round" stroke-opacity="1.0">
          <path d="M21 20L3 14" stroke="#f1f5f9" vector-effect="non-scaling-stroke" fill="none"/>
          <path d="M16 10V11" stroke="#f1f5f9" vector-effect="non-scaling-stroke" fill="none"/>
          <path d="M12 9V10" stroke="#f1f5f9" vector-effect="non-scaling-stroke" fill="none"/>
          <path d="M8 8V9" stroke="#f1f5f9" vector-effect="non-scaling-stroke" fill="none"/>
          <path d="M3 21H21V12C21 9.61305 20.0518 7.32387 18.364 5.63604C16.6761 3.94821 14.3869 3 12 3C9.61305 3 7.32387 3.94821 5.63604 5.63604C3.94821 7.32387 3 9.61305 3 12V21Z" stroke="#f1f5f9" vector-effect="non-scaling-stroke" fill="none"/>
        </g>
      </g>
      <text id="ITEM_1_HEAD" x="0.0" y="-80.0" text-anchor="middle" font-weight="bold" font-size="36" fill="var(--primary-text)" data-bg-id="ITEM_1_BG" fill-opacity="1.0" style="font-size: 30px; font-family: Inter, Segoe UI, Kalam, Roboto, Helvetica, Arial, sans-serif; font-weight: 700; letter-spacing:-0.4px;" data-final-font-size="30">
        <tspan x="0.0" dy="34.80px">Drainage Concentration</tspan>
      </text>
      <rect id="ITEM_1_HEAD_FRAME" x="-180" y="-80" width="360" height="45" fill="none"/>
    </g>
    <g transform="translate(210.0, 720)">
      <rect id="ITEM_2_BG" x="-180.0" y="-150" width="360" height="390" rx="24" fill="var(--accent-6)" fill-opacity="1.0" stroke="var(--accent-1)" stroke-width="2.6"/>
      <text id="ITEM_2_HEAD" x="0.0" y="8.0" text-anchor="middle" font-weight="bold" font-size="30" fill="var(--inverse-text)" data-bg-id="ITEM_2_BG" fill-opacity="1.0" style="font-size: 30px; font-family: Inter, Segoe UI, Kalam, Roboto, Helvetica, Arial, sans-serif; font-weight: 700; letter-spacing:-0.4px;" data-final-font-size="30">
        <tspan x="0.0" dy="49.55px">Active Movement</tspan>
      </text>
      <rect id="ITEM_2_HEAD_FRAME" x="-150.0" y="8" width="300" height="70" fill="none"/>
      <text id="ITEM_2_BODY" x="0.0" y="82.0" text-anchor="middle" font-size="23" fill="var(--inverse-text)" opacity="0.94" data-bg-id="ITEM_2_BG" data-max-lines="5" style="font-size: 26px; font-family: Inter, Segoe UI, Kalam, Roboto, Helvetica, Arial, sans-serif; font-weight: 400;" data-final-font-size="26">
        <tspan x="0.0" dy="34.33px">Live amphibians hop away</tspan>
        <tspan x="0.0" dy="29.90px">from discovery sites</tspan>
      </text>
      <rect id="ITEM_2_BODY_FRAME" x="-174" y="82" width="348" height="108" fill="none"/>
      <circle id="ITEM_2_PAD" cx="0" cy="-45.0" r="62" fill="var(--icon-pad-bg)" stroke="var(--background)" stroke-width="2" stroke-opacity="0.65" opacity="0.94" fill-opacity="0.9"/>
      <circle id="ITEM_2_PAD_INNER" cx="0" cy="-45.0" r="48.36" fill="var(--accent-6)" fill-opacity="0.22"/>
      <circle cx="0" cy="-45.0" r="49.6" fill="none" stroke="var(--accent-1)" stroke-width="3" stroke-dasharray="6 4"/>
      <g id="ITEM_2_ICON" transform="translate(-48.0, -93.0)" data-icon-size="96" stroke-dasharray="6 4">
        <g transform="translate(-7.268571428571428,-7.268571428571425) scale(3.454285714285714)">
          <path d="M28 8.44127C28.01 9.30127 27.82 10.1113 27.48 10.8413C27.33 11.1713 27.38 11.5513 27.61 11.8313C29.1 13.6513 30 15.9713 30 18.5013C30 19.2031 29.9312 19.8887 29.7999 20.5519C29.8103 20.4984 29.3839 20.6055 29.3936 20.5519L27.57 21.8068L15.8216 25.7988L4.40001 21.8068L2.41797 20.5742C2.42529 20.6145 2.18475 20.472 2.19227 20.5122C2.06609 19.8614 2 19.1891 2 18.5013C2 15.9713 2.9 13.6513 4.39 11.8313C4.62 11.5513 4.67 11.1613 4.52 10.8313C4.18 10.1113 3.99 9.29127 4 8.43127C4.04 5.48127 6.43 3.07127 9.38 3.00127C12.21 2.94127 14.57 5.02127 14.94 7.73127C14.96 7.88127 15.09 8.00127 15.25 8.00127H16.74C16.9 8.00127 17.03 7.88127 17.05 7.73127C17.43 5.01127 19.79 2.94127 22.62 3.00127C25.57 3.07127 27.96 5.48127 28 8.44127Z" fill="#00D26A"/>
          <path d="M13 8.5C13 10.433 11.433 12 9.5 12C7.567 12 6 10.433 6 8.5C6 6.567 7.567 5 9.5 5C11.433 5 13 6.567 13 8.5Z" fill="#FFF478"/>
          <path d="M26 8.5C26 10.433 24.433 12 22.5 12C20.567 12 19 10.433 19 8.5C19 6.567 20.567 5 22.5 5C24.433 5 26 6.567 26 8.5Z" fill="#FFF478"/>
          <path d="M12 8.5C12 9.88071 10.8807 11 9.5 11C8.11929 11 7 9.88071 7 8.5C7 7.11929 8.11929 6 9.5 6C10.8807 6 12 7.11929 12 8.5Z" fill="#1C1C1C"/>
          <path d="M25 8.50122C25 9.88193 23.8807 11.0012 22.5 11.0012C21.1193 11.0012 20 9.88193 20 8.50122C20 7.12051 21.1193 6.00122 22.5 6.00122C23.8807 6.00122 25 7.12051 25 8.50122Z" fill="#1C1C1C"/>
          <path d="M17.5 14.0012C17.7761 14.0012 18 13.7774 18 13.5012C18 13.2251 17.7761 13.0012 17.5 13.0012C17.2239 13.0012 17 13.2251 17 13.5012C17 13.7774 17.2239 14.0012 17.5 14.0012Z" fill="#1C1C1C"/>
          <path d="M15 13.5012C15 13.7774 14.7761 14.0012 14.5 14.0012C14.2239 14.0012 14 13.7774 14 13.5012C14 13.2251 14.2239 13.0012 14.5 13.0012C14.7761 13.0012 15 13.2251 15 13.5012Z" fill="#1C1C1C"/>
          <path d="M27.57 20.3913C26.39 20.3913 25.3 19.9913 24.42 19.3313C22.11 17.4813 19.18 16.3813 15.99 16.3813C12.77 16.3813 9.82001 17.5013 7.50001 19.3813V19.3713C6.64001 20.0113 5.56001 20.3913 4.40001 20.3913H2.17001C3.06001 25.2913 7.35001 29.0013 12.5 29.0013H19.5C24.65 29.0013 28.94 25.2913 29.83 20.3913H27.57Z" fill="#FCD53F"/>
        </g>
      </g>
    </g>
    <g transform="translate(693.3, 720)">
      <rect id="ITEM_3_BG" x="-180.0" y="-150" width="360" height="390" rx="24" fill="var(--accent-1)" fill-opacity="1.0" stroke="var(--accent-2)" stroke-width="2.6"/>
      <text id="ITEM_3_HEAD" x="0.0" y="8.0" text-anchor="middle" font-weight="bold" font-size="30" fill="var(--primary-text)" data-bg-id="ITEM_3_BG" fill-opacity="1.0" style="font-size: 30px; font-family: Inter, Segoe UI, Kalam, Roboto, Helvetica, Arial, sans-serif; font-weight: 700; letter-spacing:-0.4px;" data-final-font-size="30">
        <tspan x="0.0" dy="49.55px">Gradual Appearance</tspan>
      </text>
      <rect id="ITEM_3_HEAD_FRAME" x="-150.0" y="8" width="300" height="70" fill="none"/>
      <text id="ITEM_3_BODY" x="0.0" y="82.0" text-anchor="middle" font-size="23" fill="var(--primary-text)" opacity="0.94" data-bg-id="ITEM_3_BG" data-max-lines="5" style="font-size: 26px; font-family: Inter, Segoe UI, Kalam, Roboto, Helvetica, Arial, sans-serif; font-weight: 400;" data-final-font-size="26">
        <tspan x="0.0" dy="34.33px">Worms emerge over several</tspan>
        <tspan x="0.0" dy="29.90px">hours during rainfall</tspan>
      </text>
      <rect id="ITEM_3_BODY_FRAME" x="-174" y="82" width="348" height="108" fill="none"/>
      <circle id="ITEM_3_PAD" cx="0" cy="-45.0" r="62" fill="var(--icon-pad-bg)" stroke="var(--background)" stroke-width="2" stroke-opacity="0.65" opacity="0.94" fill-opacity="0.9"/>
      <circle id="ITEM_3_PAD_INNER" cx="0" cy="-45.0" r="48.36" fill="var(--accent-1)" fill-opacity="0.22"/>
      <circle cx="0" cy="-45.0" r="49.6" fill="none" stroke="var(--accent-2)" stroke-width="3" stroke-dasharray="6 4"/>
      <g id="ITEM_3_ICON" transform="translate(-48.0, -93.0)" data-icon-size="96" stroke-dasharray="6 4">
        <g transform="translate(-6.404999999999999,-7.268571428571428) scale(3.454285714285714)">
          <path d="M24.68 29.56C24.97 29.85 25.36 30 25.74 30C26.13 30 26.51 29.85 26.81 29.56C27.4 28.97 27.4 28.03 26.81 27.44L26.58 27.21C26.4355 27.065 26.2974 26.916 26.1659 26.7633C26.1884 26.7969 26.2149 26.8318 26.25 26.8699L24.9471 27.5215L24.13 28.9899C24.1232 28.9825 24.1153 28.9764 24.1066 28.9715C24.2181 29.0931 24.3326 29.2126 24.45 29.33L24.68 29.56Z" fill="#FF8687"/>
          <path d="M23.4811 28.2288L24.8436 27.3662L25.63 26.0799C25.647 26.1041 25.6678 26.13 25.6908 26.157C25.213 25.4849 24.8474 24.7571 24.594 24L23.0315 23.6515L21.4579 24C21.8235 25.5318 22.5088 26.9688 23.4811 28.2288Z" fill="#FF8687"/>
          <path d="M21.2667 23L23.0315 23.4703L24.3276 23C24.126 21.9949 24.1119 20.9597 24.2852 19.9509C24.2801 19.9506 24.2751 19.9503 24.27 19.9499L23.0315 19.2378L21.3629 19.1707C21.222 19.8873 21.15 20.6231 21.15 21.37C21.15 21.9201 21.1893 22.4645 21.2667 23Z" fill="#FF8687"/>
          <path d="M21.599 18.2004L21.6 18.1999L23.0315 18.8726L24.5 18.9799C24.5033 18.9833 24.5065 18.9868 24.5098 18.9902C24.8153 17.9638 25.3239 16.9858 26.0356 16.12C26.0304 16.12 26.0252 16.1199 26.02 16.1199L24.986 15.18L23.4017 14.6109C22.5831 15.6945 21.9754 16.9082 21.599 18.2004Z" fill="#FF8687"/>
          <path d="M24.0459 13.8333C24.1765 13.6893 24.3112 13.5481 24.45 13.41C24.97 12.89 25.25 12.2 25.25 11.47C25.25 11.311 25.2362 11.1539 25.2094 11L26.71 10.6047L28.2418 11C28.2539 11.1523 28.26 11.3057 28.26 11.46C28.26 12.9287 27.7071 14.3145 26.7075 15.3873C26.7064 15.3794 26.7072 15.3735 26.71 15.3699L25.1191 14.9252L24.0459 13.8333Z" fill="#FF8687"/>
          <path d="M28.0731 9.99998L26.7075 10.3753L24.8226 9.99998C24.7164 9.83205 24.5917 9.67447 24.45 9.53C23.9562 9.03619 23.3091 8.75882 22.62 8.73213L22.2032 7.48L22.62 5.72086C24.1127 5.74641 25.5138 6.34356 26.58 7.4C27.3081 8.12811 27.8181 9.02439 28.0731 9.99998Z" fill="#FF8687"/>
          <path d="M21.62 5.79008C20.4285 5.9773 19.3255 6.53453 18.46 7.4L17.6033 8.25673L17.6054 8.25589L18.46 9.53L19.7247 10.3753L20.57 9.53C20.8713 9.23445 21.2298 9.01279 21.62 8.87863L21.9961 7.48L21.62 5.79008Z" fill="#FF8687"/>
          <path d="M19.0176 11.0824L18.3202 9.72454L16.8983 8.96299L16.8986 8.9614L14.4329 11.4271L15.3044 12.7662L16.5503 13.5445L16.5496 13.5504L19.0176 11.0824Z" fill="#FF8687"/>
          <path d="M15.8516 14.2484L15.8432 14.2516L15.1232 12.8956L13.7258 12.1342L11.25 14.61L11.978 15.8855L13.37 16.73L15.8516 14.2484Z" fill="#FF8687"/>
          <path d="M12.6677 17.4282C12.6639 17.4284 12.66 17.43 12.66 17.43L11.978 16.0538L10.5404 15.3103C9.99651 15.784 9.30916 16.0073 8.63 15.9803L8.09502 17.3L8.63 18.979C8.66662 18.9797 8.70328 18.98 8.74 18.98C10.2083 18.98 11.603 18.4274 12.6677 17.4282Z" fill="#FF8687"/>
          <path d="M7.63 18.8726L7.96559 17.3L7.63 15.7492C7.32869 15.6163 7.04656 15.4266 6.8 15.18C6.20401 14.584 5.93998 13.7801 6.00793 13L4.68 12.6368L3.00488 13C3.00163 13.0797 3 13.1597 3 13.24C3 14.78 3.6 16.22 4.68 17.3C5.5016 18.1141 6.52205 18.6554 7.63 18.8726Z" fill="#FF8687"/>
          <path d="M3.13347 12L4.68 12.5695L6.29229 12C6.42002 11.7475 6.58925 11.5107 6.8 11.3L8.18395 9.91605L7.5514 8.6373L6.06903 7.80112L6.06823 7.79177L4.68 9.18C3.89682 9.97043 3.36605 10.9397 3.13347 12Z" fill="#FF8687"/>
          <path d="M6.76707 7.09293L6.77613 7.09402L7.63 8.4561L8.89105 9.20895L10.62 7.48C11.25 6.85 11.6 6.01 11.6 5.11V3.5C11.6 2.67 10.92 2 10.1 2C9.28 2 8.61 2.67 8.6 3.5V5.11C8.6 5.2 8.57 5.29 8.5 5.36L6.76707 7.09293Z" fill="#FF8687"/>
          <path d="M21.62 8.86997V5.78997C21.91 5.74997 22.21 5.71997 22.51 5.71997H22.62V8.71997H22.51C22.2 8.71997 21.9 8.76997 21.62 8.86997Z" fill="#E39D89"/>
          <path d="M6.06903 7.80115L6.77613 7.09405L8.89743 9.21535L8.19033 9.92245L6.06903 7.80115Z" fill="#E39D89"/>
          <path d="M28.06 10H24.83C25.02 10.3 25.15 10.64 25.21 11H28.23C28.21 10.66 28.15 10.33 28.06 10Z" fill="#E39D89"/>
          <path d="M26.02 16.12L23.4 14.61C23.6 14.34 23.82 14.08 24.04 13.83L26.71 15.37C26.67 15.42 26.62 15.47 26.57 15.52C26.37 15.71 26.19 15.91 26.02 16.12Z" fill="#E39D89"/>
          <path d="M21.6 18.2L24.5 18.9799C24.41 19.2999 24.33 19.63 24.27 19.95L21.36 19.17C21.43 18.84 21.51 18.52 21.6 18.2Z" fill="#E39D89"/>
          <path d="M24.32 23H21.27C21.32 23.34 21.38 23.67 21.46 24H24.58C24.47 23.67 24.38 23.33 24.32 23Z" fill="#E39D89"/>
          <path d="M26.25 26.87L24.13 28.99C23.9 28.74 23.68 28.49 23.48 28.23L25.63 26.08C25.82 26.35 26.02 26.62 26.25 26.87Z" fill="#E39D89"/>
          <path d="M6.01001 13H3.01001C3.02001 12.66 3.06001 12.33 3.14001 12H6.29001C6.14001 12.32 6.04001 12.66 6.01001 13Z" fill="#E39D89"/>
          <path d="M11.25 14.61L10.68 15.18C10.64 15.22 10.59 15.27 10.54 15.31L12.66 17.43C12.685 17.41 12.7075 17.3875 12.73 17.365C12.7525 17.3425 12.775 17.32 12.8 17.3L13.37 16.73L11.25 14.61Z" fill="#E39D89"/>
          <path d="M13.7219 12.1304L14.429 11.4233L16.5503 13.5446L15.8432 14.2517L13.7219 12.1304Z" fill="#E39D89"/>
          <path d="M8.63 15.98C8.29 15.97 7.95001 15.89 7.63 15.75V18.88C7.96 18.94 8.29 18.98 8.63 18.98V15.98Z" fill="#E39D89"/>
          <path d="M17.6054 8.25591L16.8983 8.96301L19.0196 11.0843L19.7267 10.3772L17.6054 8.25591Z" fill="#E39D89"/>
          <path d="M10.1 4.51001C10.3761 4.51001 10.6 4.28615 10.6 4.01001C10.6 3.73387 10.3761 3.51001 10.1 3.51001C9.82386 3.51001 9.60001 3.73387 9.60001 4.01001C9.60001 4.28615 9.82386 4.51001 10.1 4.51001Z" fill="#212121"/>
        </g>
      </g>
    </g>
    <g transform="translate(1226.7, 720)">
      <rect id="ITEM_4_BG" x="-180.0" y="-150" width="360" height="390" rx="24" fill="var(--accent-2)" fill-opacity="1.0" stroke="var(--accent-3)" stroke-width="2.6"/>
      <text id="ITEM_4_HEAD" x="0.0" y="8.0" text-anchor="middle" font-weight="bold" font-size="30" fill="var(--inverse-text)" data-bg-id="ITEM_4_BG" fill-opacity="1.0" style="font-size: 30px; font-family: Inter, Segoe UI, Kalam, Roboto, Helvetica, Arial, sans-serif; font-weight: 700; letter-spacing:-0.4px;" data-final-font-size="30">
        <tspan x="0.0" dy="49.55px">Low-Lying Limits</tspan>
      </text>
      <rect id="ITEM_4_HEAD_FRAME" x="-150.0" y="8" width="300" height="70" fill="none"/>
      <text id="ITEM_4_BODY" x="0.0" y="82.0" text-anchor="middle" font-size="23" fill="var(--inverse-text)" opacity="0.94" data-bg-id="ITEM_4_BG" data-max-lines="5" style="font-size: 26px; font-family: Inter, Segoe UI, Kalam, Roboto, Helvetica, Arial, sans-serif; font-weight: 400;" data-final-font-size="26">
        <tspan x="0.0" dy="34.33px">Findings restricted to roads</tspan>
        <tspan x="0.0" dy="29.90px">and garden beds</tspan>
      </text>
      <rect id="ITEM_4_BODY_FRAME" x="-174" y="82" width="348" height="108" fill="none"/>
      <circle id="ITEM_4_PAD" cx="0" cy="-45.0" r="62" fill="var(--icon-pad-bg)" stroke="var(--background)" stroke-width="2" stroke-opacity="0.65" opacity="0.94" fill-opacity="0.9"/>
      <circle id="ITEM_4_PAD_INNER" cx="0" cy="-45.0" r="48.36" fill="var(--accent-2)" fill-opacity="0.22"/>
      <circle cx="0" cy="-45.0" r="49.6" fill="none" stroke="var(--accent-3)" stroke-width="3" stroke-dasharray="6 4"/>
      <g id="ITEM_4_ICON" transform="translate(-48.0, -93.0)" data-icon-size="96" stroke-dasharray="6 4">
        <g transform="translate(-7.268571428571428,-21.08571428571429) scale(3.454285714285714)">
          <path d="M5.5 27L4 28V29.5C4 29.7761 4.22386 30 4.5 30H6.5C6.77614 30 7 29.7761 7 29.5V28L5.5 27Z" fill="#8D65C5"/>
          <path d="M26.5 27L25 28V29.5C25 29.7761 25.2239 30 25.5 30H27.5C27.7761 30 28 29.7761 28 29.5V28L26.5 27Z" fill="#8D65C5"/>
          <path d="M5 18C5 17.7358 5.2049 17.5195 5.46446 17.5012C5.48806 17.4996 5.51176 17.4983 5.53518 17.495L9 17L12.5 17.5H16V21L11 21.5L5.5 21C5.22386 21 5 20.7761 5 20.5V18Z" fill="#E1D8EC"/>
          <path d="M5 11.5C5 10.6716 4.32843 10 3.5 10C2.67157 10 2 10.6716 2 11.5V27C2 27.5523 2.44771 28 3 28H29C29.5523 28 30 27.5523 30 27V21H5V11.5Z" fill="#533566"/>
          <path d="M6.75 14C5.7835 14 5 14.7835 5 15.75V17C5 17.2762 5.22386 17.5 5.5 17.5H12.5C12.7761 17.5 13 17.2762 13 17V16.75C13 15.8043 12.2687 15.2505 11.3133 15.0151C11.2712 15.0047 11.2313 14.9942 11.1899 14.9816C10.7415 14.8453 7.9028 13.9967 6.75 14Z" fill="#3F5FFF"/>
          <path d="M16.5 15.9962C15.6716 15.9962 15 16.6678 15 17.4962V21.4999C15 21.7761 15.2239 21.9999 15.5 21.9999H29.5C29.7761 21.9999 30 21.7761 30 21.4999V19.4962C30 17.5632 28.433 15.9962 26.5 15.9962H16.5Z" fill="#3F5FFF"/>
        </g>
      </g>
    </g>
    <g transform="translate(1710.0, 720)">
      <rect id="ITEM_5_BG" x="-180.0" y="-150" width="360" height="390" rx="24" fill="var(--accent-3)" fill-opacity="1.0" stroke="var(--accent-4)" stroke-width="2.6"/>
      <text id="ITEM_5_HEAD" x="0.0" y="8.0" text-anchor="middle" font-weight="bold" font-size="30" fill="var(--primary-text)" data-bg-id="ITEM_5_BG" fill-opacity="1.0" style="font-size: 30px; font-family: Inter, Segoe UI, Kalam, Roboto, Helvetica, Arial, sans-serif; font-weight: 700; letter-spacing:-0.4px;" data-final-font-size="30">
        <tspan x="0.0" dy="49.55px">Hydrological Links</tspan>
      </text>
      <rect id="ITEM_5_HEAD_FRAME" x="-150.0" y="8" width="300" height="70" fill="none"/>
      <text id="ITEM_5_BODY" x="0.0" y="82.0" text-anchor="middle" font-size="23" fill="var(--primary-text)" opacity="0.94" data-bg-id="ITEM_5_BG" data-max-lines="5" style="font-size: 26px; font-family: Inter, Segoe UI, Kalam, Roboto, Helvetica, Arial, sans-serif; font-weight: 400;" data-final-font-size="26">
        <tspan x="0.0" dy="34.33px">Recent flooding connects ponds</tspan>
        <tspan x="0.0" dy="29.90px">to discovery locations</tspan>
      </text>
      <rect id="ITEM_5_BODY_FRAME" x="-174" y="82" width="348" height="108" fill="none"/>
      <circle id="ITEM_5_PAD" cx="0" cy="-45.0" r="62" fill="var(--icon-pad-bg)" stroke="var(--background)" stroke-width="2" stroke-opacity="0.65" opacity="0.94" fill-opacity="0.9"/>
      <circle id="ITEM_5_PAD_INNER" cx="0" cy="-45.0" r="48.36" fill="var(--accent-3)" fill-opacity="0.22"/>
      <circle cx="0" cy="-45.0" r="49.6" fill="none" stroke="var(--accent-4)" stroke-width="3" stroke-dasharray="6 4"/>
      <g id="ITEM_5_ICON" transform="translate(-48.0, -93.0)" data-icon-size="96" stroke-dasharray="6 4">
        <g transform="translate(-4.45830508474577,-4.458305084745765) scale(4.371525423728814)" vector-effect="non-scaling-stroke" stroke-width="2.86" stroke-linecap="round" stroke-linejoin="round" stroke-opacity="1.0">
          <path d="M2 20a2.4 2.4 0 0 0 2 1a2.4 2.4 0 0 0 2 -1a2.4 2.4 0 0 1 2 -1a2.4 2.4 0 0 1 2 1a2.4 2.4 0 0 0 2 1a2.4 2.4 0 0 0 2 -1a2.4 2.4 0 0 1 2 -1a2.4 2.4 0 0 1 2 1a2.4 2.4 0 0 0 2 1a2.4 2.4 0 0 0 2 -1" vector-effect="non-scaling-stroke" fill="none" stroke="#f1f5f9"/>
          <path d="M2 16a2.4 2.4 0 0 0 2 1a2.4 2.4 0 0 0 2 -1a2.4 2.4 0 0 1 2 -1a2.4 2.4 0 0 1 2 1a2.4 2.4 0 0 0 2 1a2.4 2.4 0 0 0 2 -1a2.4 2.4 0 0 1 2 -1a2.4 2.4 0 0 1 2 1a2.4 2.4 0 0 0 2 1a2.4 2.4 0 0 0 2 -1" vector-effect="non-scaling-stroke" fill="none" stroke="#f1f5f9"/>
          <path d="M15 12v-7.5a1.5 1.5 0 0 1 3 0" vector-effect="non-scaling-stroke" fill="none" stroke="#f1f5f9"/>
          <path d="M9 12v-7.5a1.5 1.5 0 0 0 -3 0" vector-effect="non-scaling-stroke" fill="none" stroke="#f1f5f9"/>
          <path d="M15 5l-6 0" vector-effect="non-scaling-stroke" fill="none" stroke="#f1f5f9"/>
          <path d="M9 10l6 0" vector-effect="non-scaling-stroke" fill="none" stroke="#f1f5f9"/>
        </g>
      </g>
    </g>
  </g>
</svg>
