<?xml version='1.0' encoding='utf-8'?>
<svg xmlns="http://www.w3.org/2000/svg" width="1920" height="1080" viewBox="0 0 1920 1080" data-theme="dark">
  <style>
        @font-face {
            font-family: 'Inter';
            src: url('assets/fonts/Inter-Regular.ttf') format('truetype');
            font-weight: 400;
            font-style: normal;
            font-display: swap;
        }
        @font-face {
            font-family: 'Inter';
            src: url('assets/fonts/Inter-Bold.ttf') format('truetype');
            font-weight: 600;
            font-style: normal;
            font-display: swap;
        }
        @font-face {
            font-family: 'Inter';
            src: url('assets/fonts/Inter-Bold.ttf') format('truetype');
            font-weight: 800;
            font-style: normal;
            font-display: swap;
        }
        
:root {
    --background: #0f172a;
    --panel: #1e293b;
    --primary-text: #f1f5f9;
    --muted-text: #94a3b8;
    --inverse-text: #0f172a;
    --border: #334155;
    --shadow-color: #000000;
    --icon-pad-bg: #1e293b;
    --art-glow: #7dd3fc;
    --art-glow-opacity: 0.18;
    --art-sheen: #ffffff;
    --art-sheen-opacity: 0.18;
    --art-shadow: #000000;
    --art-shadow-opacity: 0.28;
    --art-muted-line: #64748b;
    --art-panel-tint: #1e293b;
    --font-family: 'Inter', 'Segoe UI', 'Kalam', Roboto, Helvetica, Arial, sans-serif;
    --radius-xl: 16px;
    --font-family-headline: 'Inter', 'Segoe UI', 'Kalam', Roboto, Helvetica, Arial, sans-serif;
    --font-family-body: 'Inter', 'Segoe UI', 'Kalam', Roboto, Helvetica, Arial, sans-serif;
    --font-heading: 'Inter', 'Segoe UI', 'Kalam', Roboto, Helvetica, Arial, sans-serif;
    --font-body: 'Inter', 'Segoe UI', 'Kalam', Roboto, Helvetica, Arial, sans-serif;
    --font-size-h1: 56px;
    --font-size-h2: 40px;
    --font-size-h3: 28px;
    --font-size-body: 24px;
    --font-size-caption: 18px;
    --secondary-text: var(--muted-text);
    --panel-border: var(--border);
    --font-weight-normal: 400;
    --font-weight-medium: 500;
    --font-weight-semibold: 600;
    --font-weight-bold: 700;
    --spacing-gutter-pct: 0.07;
    --spacing-top-pct: 0.15;
    --spacing-bottom-pct: 0.07;
    --spacing-title-y-pct: 0.055;
    --accent-1: #93c5fd;
    --accent-2: #86efac;
    --accent-3: #fcd34d;
    --accent-4: #f9a8d4;
    --accent-5: #c4b5fd;
    --accent-6: #a5f3fc;
}
:root[data-theme="dark"] {
    --background: #0f172a;
    --panel: #1e293b;
    --primary-text: #f1f5f9;
    --muted-text: #94a3b8;
    --inverse-text: #0f172a;
    --border: #334155;
    --shadow-color: #000000;
    --icon-pad-bg: #1e293b;
    --art-glow: #7dd3fc;
    --art-glow-opacity: 0.18;
    --art-sheen: #ffffff;
    --art-sheen-opacity: 0.18;
    --art-shadow: #000000;
    --art-shadow-opacity: 0.28;
    --art-muted-line: #64748b;
    --art-panel-tint: #1e293b;
    --accent-1: #93c5fd;
    --accent-2: #86efac;
    --accent-3: #fcd34d;
    --accent-4: #f9a8d4;
    --accent-5: #c4b5fd;
    --accent-6: #a5f3fc;
}
:root[data-theme="light"] {
    --background: #f8fafc;
    --panel: #ffffff;
    --primary-text: #0f172a;
    --muted-text: #64748b;
    --inverse-text: #ffffff;
    --border: #e2e8f0;
    --shadow-color: #000000;
    --icon-pad-bg: #1e293b;
    --art-glow: #0891b2;
    --art-glow-opacity: 0.10;
    --art-sheen: #ffffff;
    --art-sheen-opacity: 0.34;
    --art-shadow: #0f172a;
    --art-shadow-opacity: 0.14;
    --art-muted-line: #94a3b8;
    --art-panel-tint: #f1f5f9;
    --accent-1: #3b82f6;
    --accent-2: #22c55e;
    --accent-3: #f59e0b;
    --accent-4: #ec4899;
    --accent-5: #8b5cf6;
    --accent-6: #06b6d4;
}</style>
  <rect x="0" y="0" width="1.92E+3" height="1.08E+3" fill="#252a34" stroke="none" id="programmatic_background"/>
  <line id="HEADER_DECOR" x1="960.0" x2="1080.0" y1="135.0" y2="135.0" stroke="var(--accent-1)" stroke-width="6" stroke-linecap="round"/>
  <defs>
    <pattern id="svg738c7f11-napkin-hatch" patternUnits="userSpaceOnUse" width="12" height="12">
      <path d="M -3 12 L 12 -3 M 0 15 L 15 0" fill="none" stroke="var(--primary-text)" stroke-width="1" stroke-opacity="0.05"/>
    </pattern>
    <filter id="svg738c7f11-shadow" x="-30%" y="-30%" width="160%" height="160%">
      <feDropShadow dx="0" dy="2" stdDeviation="3" flood-color="#000000" flood-opacity="0.08"/>
      <feDropShadow dx="0" dy="6" stdDeviation="10" flood-color="#000000" flood-opacity="0.12"/>
    </filter>
    <marker id="svg738c7f11-arrowhead" markerWidth="10" markerHeight="10" refX="9" refY="5" orient="auto">
      <path d="M 0 0 L 10 5 L 0 10 Z" fill="var(--accent-1)"/>
    </marker>
    <filter id="svg738c7f11-text-glow" x="-20%" y="-20%" width="140%" height="140%">
      <feDropShadow dx="0" dy="0" stdDeviation="2" flood-color="#000000" flood-opacity="0.4"/>
    </filter>
    <radialGradient id="svg738c7f11-universal-edge-vignette" cx="50%" cy="50%" r="72%">
      <stop offset="0%" stop-color="var(--background)" stop-opacity="0"/>
      <stop offset="72%" stop-color="var(--background)" stop-opacity="0.12"/>
      <stop offset="100%" stop-color="var(--primary-text)" stop-opacity="0.08"/>
    </radialGradient>
    <linearGradient id="svg738c7f11-universal-surface-sheen" x1="0%" y1="0%" x2="100%" y2="100%">
      <stop offset="0%" stop-color="var(--art-sheen)" stop-opacity="var(--art-sheen-opacity)"/>
      <stop offset="46%" stop-color="var(--art-sheen)" stop-opacity="0.035"/>
      <stop offset="100%" stop-color="var(--art-panel-tint)" stop-opacity="0.14"/>
    </linearGradient>
    <radialGradient id="svg738c7f11-universal-icon-aura" cx="50%" cy="42%" r="64%">
      <stop offset="0%" stop-color="var(--art-glow)" stop-opacity="var(--art-glow-opacity)"/>
      <stop offset="100%" stop-color="var(--background)" stop-opacity="0"/>
    </radialGradient>
  </defs>
  <rect width="100%" height="100%" fill="var(--background)" id="CANVAS_BG"/>
  <rect width="100%" height="100%" fill="url(#svg738c7f11-napkin-hatch)"/>
  <rect id="UNIVERSAL_EDGE_VIGNETTE" width="100%" height="100%" fill="url(#svg738c7f11-universal-edge-vignette)" opacity="0.62"/>
  <text id="TITLE" x="960.0" y="59" text-anchor="middle" font-weight="800" font-size="56" fill="#f1f5f9" style="font-size: 60px; font-family: Inter, Segoe UI, Kalam, Roboto, Helvetica, Arial, sans-serif; font-weight: 700; letter-spacing:-1.2px;" data-final-font-size="60">
    <tspan x="960.0" dy="68.00px">Why the Bird Theory Persists</tspan>
  </text>
  <rect id="TITLE_FRAME" x="134" y="59" width="1652" height="103" fill="none"/>
  <g transform="translate(50, 500) scale(0.95)">
    <g transform="translate(240.0, 0)">
      <rect id="ITEM_1_BG" x="-140" y="-180" width="280" height="360" rx="24" fill="var(--panel)" stroke="var(--accent-1)" stroke-width="2"/>
      <text id="ITEM_1_HEAD" x="0.0" y="10.0" text-anchor="middle" font-weight="bold" font-size="32" fill="var(--accent-1)" data-bg-id="ITEM_1_BG" fill-opacity="1.0" stroke="none" style="font-size: 25px; font-family: Inter, Segoe UI, Kalam, Roboto, Helvetica, Arial, sans-serif; font-weight: 700; letter-spacing:-0.4px;" data-final-font-size="25">
        <tspan x="0.0" dy="25.62px">Biological Evidence</tspan>
      </text>
      <rect id="ITEM_1_HEAD_FRAME" x="-120" y="10" width="240" height="40" fill="none"/>
      <text id="ITEM_1_BODY" x="0.0" y="60.0" text-anchor="middle" font-size="22" fill="var(--primary-text)" data-bg-id="ITEM_1_BG" style="font-size: 26px; font-family: Inter, Segoe UI, Kalam, Roboto, Helvetica, Arial, sans-serif; font-weight: 400;" data-final-font-size="26">
        <tspan x="0.0" dy="26.86px">Owls and cranes match</tspan>
        <tspan x="0.0" dy="29.90px">physical descriptions</tspan>
        <tspan x="0.0" dy="29.90px">of sightings</tspan>
      </text>
      <rect id="ITEM_1_BODY_FRAME" x="-143" y="60" width="286" height="120" fill="none" data-side-overflow-fix="47.0|47.0"/>
      <circle id="ITEM_1_PAD" cx="0" cy="-70" r="58" fill="var(--icon-pad-bg)" stroke="var(--primary-text)" opacity="0.9" fill-opacity="0.9" stroke-width="2"/>
      <circle id="ITEM_1_PAD_INNER" cx="0" cy="-70" r="45.24" fill="var(--accent-1)" fill-opacity="0.22"/>
      <circle cx="0" cy="-70" r="46.4" fill="none" stroke="var(--accent-1)" stroke-width="3" stroke-dasharray="6 4"/>
      <g id="ITEM_1_ICON" transform="translate(-45, -115)" data-icon-size="90" stroke-dasharray="6 4">
        <g transform="translate(-4.073898305084748,-3.3071186440677964) scale(0.1916949152542373)" vector-effect="non-scaling-stroke" fill="#f1f5f9" fill-opacity="1.0" stroke="none">
          <path fill="#f1f5f9" d="M22.472 28.76c107.552 68.108 207.02 121.53 322.01 133.68c40.707 4.3 47.814 34.94 31.675 70.102c-26.52 57.774 16.43 143.547 112.342 195.465c-5.983 27.987-46.316 51.545-71.16 43.272c-20.682-43.168-52.9-88.738-87.806-76.376c-71.394 25.286-144.915 30.663-194.836 3.448c66.227-8.987 129.273-26.595 184.8-54.342C219.18 359.013 100.407 359.4 55.4 309.038c91.057 3.638 164.862-5.6 247.26-26.224C192.912 272.707 72.247 252.64 38.277 185.35c80.977 25.247 189.57 34.646 263.032 35.158C186.86 191.675 32.936 112.722 22.47 28.76z" vector-effect="non-scaling-stroke" stroke="none"/>
        </g>
      </g>
    </g>
    <text x="420.0" y="50" text-anchor="middle" font-size="72" font-weight="900" fill="var(--muted-text)" opacity="0.5" dominant-baseline="middle">+</text>
    <g transform="translate(600.0, 0)">
      <rect id="ITEM_2_BG" x="-140" y="-180" width="280" height="360" rx="24" fill="var(--panel)" stroke="var(--accent-2)" stroke-width="2"/>
      <text id="ITEM_2_HEAD" x="0.0" y="10.0" text-anchor="middle" font-weight="bold" font-size="32" fill="var(--accent-2)" data-bg-id="ITEM_2_BG" fill-opacity="1.0" stroke="none" style="font-size: 23px; font-family: Inter, Segoe UI, Kalam, Roboto, Helvetica, Arial, sans-serif; font-weight: 700; letter-spacing:-0.4px;" data-final-font-size="23">
        <tspan x="0.0" dy="25.18px">Environmental Context</tspan>
      </text>
      <rect id="ITEM_2_HEAD_FRAME" x="-120" y="10" width="240" height="40" fill="none"/>
      <text id="ITEM_2_BODY" x="0.0" y="60.0" text-anchor="middle" font-size="22" fill="var(--primary-text)" data-bg-id="ITEM_2_BG" style="font-size: 26px; font-family: Inter, Segoe UI, Kalam, Roboto, Helvetica, Arial, sans-serif; font-weight: 400;" data-final-font-size="26">
        <tspan x="0.0" dy="26.86px">The TNT Area provides</tspan>
        <tspan x="0.0" dy="29.90px">a perfect stage</tspan>
        <tspan x="0.0" dy="29.90px">for confusion</tspan>
      </text>
      <rect id="ITEM_2_BODY_FRAME" x="-143" y="60" width="286" height="120" fill="none" data-side-overflow-fix="47.0|47.0"/>
      <circle id="ITEM_2_PAD" cx="0" cy="-70" r="58" fill="var(--icon-pad-bg)" stroke="var(--primary-text)" opacity="0.9" fill-opacity="0.9" stroke-width="2"/>
      <circle id="ITEM_2_PAD_INNER" cx="0" cy="-70" r="45.24" fill="var(--accent-2)" fill-opacity="0.22"/>
      <circle cx="0" cy="-70" r="46.4" fill="none" stroke="var(--accent-2)" stroke-width="3" stroke-dasharray="6 4"/>
      <g id="ITEM_2_ICON" transform="translate(-45, -115)" data-icon-size="90" stroke-dasharray="6 4">
        <g transform="translate(-8.318571428571435,-6.7028571428571455) scale(3.2314285714285718)">
          <path d="M6.38815 7.21997L3.31815 8.82997C2.95815 9.01997 2.88815 9.50997 3.18815 9.79997L5.79815 12.27L6.38815 7.21997Z" fill="#F9C23C"/>
          <path d="M18.5582 28.5H16.7782L17.9782 22.5H16.4782L15.2782 28.5H11.7781L12.9781 22.5H11.4781L10.2781 28.5H8.47812C7.74812 28.5 7.14812 29.02 7.00812 29.71C6.96812 29.86 7.09812 30 7.24812 30H19.7782C19.9382 30 20.0582 29.86 20.0282 29.71C19.8882 29.02 19.2782 28.5 18.5582 28.5Z" fill="#F9C23C"/>
          <path d="M17.5681 6.22C17.4381 5.8 17.2681 5.4 17.0481 5.03H17.6681C18.9581 5.03 19.9981 3.99 19.9981 2.7C19.9981 2.32 19.6781 2 19.2981 2H11.8381C8.65813 2 6.05813 4.48 5.84813 7.61L4.55813 18.79C4.17813 22.1 6.75813 25 10.0881 25H23.8381L23.8348 24.99H29.1181C29.5181 24.99 29.8381 24.67 29.8381 24.27V15.12C29.8381 14.6 29.2881 14.25 28.8081 14.47L21.4662 17.8893L19.1682 11H19.164L17.5681 6.22Z" fill="#CA0B4A"/>
          <path d="M10 10C10.5523 10 11 9.55228 11 9C11 8.44772 10.5523 8 10 8C9.44772 8 9 8.44772 9 9C9 9.55228 9.44772 10 10 10Z" fill="#212121"/>
        </g>
      </g>
    </g>
    <text x="780.0" y="50" text-anchor="middle" font-size="72" font-weight="900" fill="var(--muted-text)" opacity="0.5" dominant-baseline="middle">+</text>
    <g transform="translate(960.0, 0)">
      <rect id="ITEM_3_BG" x="-140" y="-180" width="280" height="360" rx="24" fill="var(--panel)" stroke="var(--accent-3)" stroke-width="2"/>
      <text id="ITEM_3_HEAD" x="0.0" y="10.0" text-anchor="middle" font-weight="bold" font-size="32" fill="var(--accent-3)" data-bg-id="ITEM_3_BG" fill-opacity="1.0" stroke="none" style="font-size: 22px; font-family: Inter, Segoe UI, Kalam, Roboto, Helvetica, Arial, sans-serif; font-weight: 700; letter-spacing:-0.4px;" data-final-font-size="22">
        <tspan x="0.0" dy="24.95px">Cultural Reinforcement</tspan>
      </text>
      <rect id="ITEM_3_HEAD_FRAME" x="-120" y="10" width="240" height="40" fill="none"/>
      <text id="ITEM_3_BODY" x="0.0" y="60.0" text-anchor="middle" font-size="22" fill="var(--primary-text)" data-bg-id="ITEM_3_BG" style="font-size: 26px; font-family: Inter, Segoe UI, Kalam, Roboto, Helvetica, Arial, sans-serif; font-weight: 400;" data-final-font-size="26">
        <tspan x="0.0" dy="26.86px">Newspapers and</tspan>
        <tspan x="0.0" dy="29.90px">television solidified</tspan>
        <tspan x="0.0" dy="29.90px">a common monster image</tspan>
      </text>
      <rect id="ITEM_3_BODY_FRAME" x="-143" y="60" width="286" height="120" fill="none" data-side-overflow-fix="47.0|47.0"/>
      <circle id="ITEM_3_PAD" cx="0" cy="-70" r="58" fill="var(--icon-pad-bg)" stroke="var(--primary-text)" opacity="0.9" fill-opacity="0.9" stroke-width="2"/>
      <circle id="ITEM_3_PAD_INNER" cx="0" cy="-70" r="45.24" fill="var(--accent-3)" fill-opacity="0.22"/>
      <circle cx="0" cy="-70" r="46.4" fill="none" stroke="var(--accent-3)" stroke-width="3" stroke-dasharray="6 4"/>
      <g id="ITEM_3_ICON" transform="translate(-45, -115)" data-icon-size="90" stroke-dasharray="6 4">
        <g transform="translate(-6.245309734513276,-6.645663716814162) scale(3.20283185840708)">
          <path d="M10.3535 3.06063C10.1582 2.86537 10.1582 2.54879 10.3535 2.35352C10.5487 2.15826 10.8653 2.15826 11.0606 2.35352L14.9497 6.24261L14.2426 6.94972L10.3535 3.06063Z" fill="#636363"/>
          <path d="M18.889 2.35348C19.0842 2.15822 19.4008 2.15822 19.5961 2.35348C19.7914 2.54874 19.7914 2.86532 19.5961 3.06058L15.707 6.94967L14.9999 6.24257L18.889 2.35348Z" fill="#636363"/>
          <path d="M11.0002 23.5L8.00024 23L6.46544 28.7279C6.31248 29.2987 6.65125 29.8855 7.22209 30.0385C7.73725 30.1765 8.2754 29.9141 8.48393 29.4232L11.0002 23.5Z" fill="#636363"/>
          <path d="M21.0002 23.5L24.0002 23L25.535 28.7279C25.688 29.2987 25.3492 29.8855 24.7784 30.0385C24.2632 30.1765 23.7251 29.9141 23.5165 29.4232L21.0002 23.5Z" fill="#636363"/>
          <path d="M3 9C3 7.34315 4.34315 6 6 6H26C27.6569 6 29 7.34315 29 9V22C29 23.6569 27.6569 25 26 25H6C4.34315 25 3 23.6569 3 22V9Z" fill="#9B9B9B"/>
          <circle cx="25.75" cy="13.25" r="1.25" fill="#CA0B4A"/>
          <circle cx="25.75" cy="9.25" r="1.25" fill="#636363"/>
          <path d="M6.5 11.5C6.5 10.3954 7.39543 9.5 8.5 9.5H20.5C21.6046 9.5 22.5 10.3954 22.5 11.5V19.5C22.5 20.6046 21.6046 21.5 20.5 21.5H8.5C7.39543 21.5 6.5 20.6046 6.5 19.5V11.5Z" fill="#83CBFF"/>
          <path d="M21 10C21.5523 10 22 10.4477 22 11V20C22 20.5523 21.5523 21 21 21H8C7.44772 21 7 20.5523 7 20V11C7 10.4477 7.44772 10 8 10H21ZM8 9C6.89543 9 6 9.89543 6 11V20C6 21.1046 6.89543 22 8 22H21C22.1046 22 23 21.1046 23 20V11C23 9.89543 22.1046 9 21 9H8Z" fill="#321B41"/>
        </g>
      </g>
    </g>
    <text x="1140.0" y="50" text-anchor="middle" font-size="72" font-weight="900" fill="var(--muted-text)" opacity="0.5" dominant-baseline="middle">+</text>
    <g transform="translate(1320.0, 0)">
      <rect id="ITEM_4_BG" x="-140" y="-180" width="280" height="360" rx="24" fill="var(--panel)" stroke="var(--accent-4)" stroke-width="2"/>
      <text id="ITEM_4_HEAD" x="0.0" y="10.0" text-anchor="middle" font-weight="bold" font-size="32" fill="var(--accent-4)" data-bg-id="ITEM_4_BG" fill-opacity="1.0" stroke="none" style="font-size: 27px; font-family: Inter, Segoe UI, Kalam, Roboto, Helvetica, Arial, sans-serif; font-weight: 700; letter-spacing:-0.4px;" data-final-font-size="27">
        <tspan x="0.0" dy="26.08px">Folklore Synthesis</tspan>
      </text>
      <rect id="ITEM_4_HEAD_FRAME" x="-120" y="10" width="240" height="40" fill="none"/>
      <text id="ITEM_4_BODY" x="0.0" y="60.0" text-anchor="middle" font-size="22" fill="var(--primary-text)" data-bg-id="ITEM_4_BG" style="font-size: 26px; font-family: Inter, Segoe UI, Kalam, Roboto, Helvetica, Arial, sans-serif; font-weight: 400;" data-final-font-size="26">
        <tspan x="0.0" dy="20.88px">Memory and</tspan>
        <tspan x="0.0" dy="29.90px">storytelling</tspan>
        <tspan x="0.0" dy="29.90px">transformed birds into</tspan>
        <tspan x="0.0" dy="29.90px">a cryptid</tspan>
      </text>
      <rect id="ITEM_4_BODY_FRAME" x="-143" y="60" width="286" height="120" fill="none" data-side-overflow-fix="47.0|47.0"/>
      <circle id="ITEM_4_PAD" cx="0" cy="-70" r="58" fill="var(--icon-pad-bg)" stroke="var(--primary-text)" opacity="0.9" fill-opacity="0.9" stroke-width="2"/>
      <circle id="ITEM_4_PAD_INNER" cx="0" cy="-70" r="45.24" fill="var(--accent-4)" fill-opacity="0.22"/>
      <circle cx="0" cy="-70" r="46.4" fill="none" stroke="var(--accent-4)" stroke-width="3" stroke-dasharray="6 4"/>
      <g id="ITEM_4_ICON" transform="translate(-45, -115)" data-icon-size="90" stroke-dasharray="6 4">
        <g transform="translate(-6.7028571428571455,-16.397142857142864) scale(3.2314285714285718)">
          <path fill-rule="evenodd" clip-rule="evenodd" d="M16 8.05051C16.6353 7.40223 17.5207 7 18.5 7H26.5C27.2428 7 27.8892 7.40449 28.234 8.00326C28.3036 8.12402 28.3296 8.26363 28.3296 8.40297V10.6972L29 25.5C29 26.8807 27.8807 28 26.5 28H5.5C4.11929 28 3 26.8807 3 25.5L3.67038 10.6972V8.40298C3.67038 8.26363 3.69643 8.12402 3.76597 8.00327C4.11082 7.40451 4.75724 7 5.5 7H13.5C14.4793 7 15.3647 7.40223 16 8.05051Z" fill="#B4ACBC"/>
          <path d="M17.7324 30H28.4989C29.3295 30 30 29.3221 30 28.4948V27.4414C30 26.614 29.3295 25 28.4989 25H3.50107C2.67048 25 2 26.614 2 27.4414V28.5047C2 29.3321 2.67048 30 3.50107 30H14.2676C14.6134 30.5978 15.2597 31 16 31C16.7403 31 17.3866 30.5978 17.7324 30Z" fill="#0074BA"/>
          <path fill-rule="evenodd" clip-rule="evenodd" d="M3.50107 10H14V11H18V10H28.4989C29.3295 10 30 10.6679 30 11.4953V27.4948C30 28.3221 29.3295 29 28.4989 29H17.7324C17.3866 29.5978 16.7403 30 16 30C15.2597 30 14.6134 29.5978 14.2676 29H3.50107C2.67048 29 2 28.3321 2 27.5047V11.4953C2 10.6679 2.67048 10 3.50107 10ZM17.5 27.5C17.5 28.3284 16.8284 29 16 29C15.1716 29 14.5 28.3284 14.5 27.5C14.5 26.6716 15.1716 26 16 26C16.8284 26 17.5 26.6716 17.5 27.5Z" fill="#00A6ED"/>
          <path d="M13 8H5.80278C5.30125 8 4.8329 8.25065 4.5547 8.66795L3 11V25.5C3 26.3284 3.67157 27 4.5 27H27.5C28.3284 27 29 26.3284 29 25.5V11L27.4453 8.66795C27.1671 8.25065 26.6988 8 26.1972 8H19V11H13V8Z" fill="#B4ACBC"/>
          <path d="M5.5 8H13.5C14.8807 8 16 9.11929 16 10.5V27L15.5528 26.1056C15.214 25.428 14.5215 25 13.7639 25H5.5C4.94772 25 4.5 24.5523 4.5 24V9C4.5 8.44772 4.94772 8 5.5 8Z" fill="#F3EEF8"/>
          <path d="M18.5 8H26.5C27.0523 8 27.5 8.44772 27.5 9V24C27.5 24.5523 27.0523 25 26.5 25H18.2361C17.516 25 16.8546 25.3867 16.5 26.007V8.99976C16.9561 8.39267 17.6822 8 18.5 8Z" fill="#F3EEF8"/>
        </g>
      </g>
    </g>
    <text x="1500.0" y="50" text-anchor="middle" font-size="72" font-weight="900" fill="var(--muted-text)" opacity="0.5" dominant-baseline="middle">=</text>
    <g transform="translate(1680.0, 0)">
      <rect id="ITEM_5_BG" x="-140" y="-180" width="280" height="360" rx="24" fill="var(--panel)" stroke="var(--accent-5)" stroke-width="2"/>
      <text id="ITEM_5_HEAD" x="0.0" y="10.0" text-anchor="middle" font-weight="bold" font-size="32" fill="var(--accent-4)" data-bg-id="ITEM_5_BG" fill-opacity="1.0" stroke="none" style="font-size: 30px; font-family: Inter, Segoe UI, Kalam, Roboto, Helvetica, Arial, sans-serif; font-weight: 700; letter-spacing:-0.4px;" data-final-font-size="30">
        <tspan x="0.0" dy="28.25px">Legendary Status</tspan>
      </text>
      <rect id="ITEM_5_HEAD_FRAME" x="-120" y="10" width="240" height="40" fill="none"/>
      <text id="ITEM_5_BODY" x="0.0" y="60.0" text-anchor="middle" font-size="22" fill="var(--primary-text)" data-bg-id="ITEM_5_BG" style="font-size: 26px; font-family: Inter, Segoe UI, Kalam, Roboto, Helvetica, Arial, sans-serif; font-weight: 400;" data-final-font-size="26">
        <tspan x="0.0" dy="20.88px">The Silver Bridge</tspan>
        <tspan x="0.0" dy="29.90px">disaster added</tspan>
        <tspan x="0.0" dy="29.90px">emotional weight to</tspan>
        <tspan x="0.0" dy="29.90px">sightings</tspan>
      </text>
      <rect id="ITEM_5_BODY_FRAME" x="-143" y="60" width="286" height="120" fill="none" data-side-overflow-fix="47.0|47.0"/>
      <circle id="ITEM_5_PAD" cx="0" cy="-70" r="58" fill="var(--icon-pad-bg)" stroke="var(--primary-text)" opacity="0.9" fill-opacity="0.9" stroke-width="2"/>
      <circle id="ITEM_5_PAD_INNER" cx="0" cy="-70" r="45.24" fill="var(--accent-4)" fill-opacity="0.22"/>
      <circle cx="0" cy="-70" r="46.4" fill="none" stroke="var(--accent-5)" stroke-width="3" stroke-dasharray="6 4"/>
      <g id="ITEM_5_ICON" transform="translate(-45, -115)" data-icon-size="90" stroke-dasharray="6 4">
        <g transform="translate(-6.7028571428571455,-6.702857142857148) scale(0.40392857142857147)" vector-effect="non-scaling-stroke" stroke-width="2.79" stroke-linecap="round" stroke-linejoin="round" stroke-opacity="1.0">
          <line x1="64" y1="56" x2="64" y2="200" fill="none" stroke="#f1f5f9" vector-effect="non-scaling-stroke"/>
          <line x1="192" y1="56" x2="192" y2="200" fill="none" stroke="#f1f5f9" vector-effect="non-scaling-stroke"/>
          <path d="M24,115.35A64,64,0,0,0,64,56a64,64,0,0,0,128,0,64,64,0,0,0,40,59.35" fill="none" stroke="#f1f5f9" vector-effect="non-scaling-stroke"/>
          <line x1="152" y1="115.35" x2="152" y2="168" fill="none" stroke="#f1f5f9" vector-effect="non-scaling-stroke"/>
          <line x1="104" y1="115.35" x2="104" y2="168" fill="none" stroke="#f1f5f9" vector-effect="non-scaling-stroke"/>
          <line x1="24" y1="168" x2="232" y2="168" fill="none" stroke="#f1f5f9" vector-effect="non-scaling-stroke"/>
        </g>
      </g>
    </g>
  </g>
</svg>
