<?xml version='1.0' encoding='utf-8'?>
<svg xmlns="http://www.w3.org/2000/svg" width="1920" height="1080" viewBox="0 0 1920 1080" data-theme="light">
  <style>
        @font-face {
            font-family: 'Inter';
            src: url('assets/fonts/Inter-Regular.ttf') format('truetype');
            font-weight: 400;
            font-style: normal;
            font-display: swap;
        }
        @font-face {
            font-family: 'Inter';
            src: url('assets/fonts/Inter-Bold.ttf') format('truetype');
            font-weight: 600;
            font-style: normal;
            font-display: swap;
        }
        @font-face {
            font-family: 'Inter';
            src: url('assets/fonts/Inter-Bold.ttf') format('truetype');
            font-weight: 800;
            font-style: normal;
            font-display: swap;
        }
        
:root {
    --background: #f8fafc;
    --panel: #ffffff;
    --primary-text: #0f172a;
    --muted-text: #64748b;
    --inverse-text: #ffffff;
    --border: #e2e8f0;
    --shadow-color: #000000;
    --icon-pad-bg: #1e293b;
    --art-glow: #0891b2;
    --art-glow-opacity: 0.10;
    --art-sheen: #ffffff;
    --art-sheen-opacity: 0.34;
    --art-shadow: #0f172a;
    --art-shadow-opacity: 0.14;
    --art-muted-line: #94a3b8;
    --art-panel-tint: #f1f5f9;
    --font-family: 'Inter', 'Segoe UI', 'Kalam', Roboto, Helvetica, Arial, sans-serif;
    --radius-xl: 16px;
    --font-family-headline: 'Inter', 'Segoe UI', 'Kalam', Roboto, Helvetica, Arial, sans-serif;
    --font-family-body: 'Inter', 'Segoe UI', 'Kalam', Roboto, Helvetica, Arial, sans-serif;
    --font-heading: 'Inter', 'Segoe UI', 'Kalam', Roboto, Helvetica, Arial, sans-serif;
    --font-body: 'Inter', 'Segoe UI', 'Kalam', Roboto, Helvetica, Arial, sans-serif;
    --font-size-h1: 56px;
    --font-size-h2: 40px;
    --font-size-h3: 28px;
    --font-size-body: 24px;
    --font-size-caption: 18px;
    --secondary-text: var(--muted-text);
    --panel-border: var(--border);
    --font-weight-normal: 400;
    --font-weight-medium: 500;
    --font-weight-semibold: 600;
    --font-weight-bold: 700;
    --spacing-gutter-pct: 0.07;
    --spacing-top-pct: 0.15;
    --spacing-bottom-pct: 0.07;
    --spacing-title-y-pct: 0.055;
    --accent-1: #0891b2;
    --accent-2: #0284c7;
    --accent-3: #2563eb;
    --accent-4: #4f46e5;
    --accent-5: #7c3aed;
    --accent-6: #0d9488;
}
:root[data-theme="dark"] {
    --background: #0f172a;
    --panel: #1e293b;
    --primary-text: #f1f5f9;
    --muted-text: #94a3b8;
    --inverse-text: #0f172a;
    --border: #334155;
    --shadow-color: #000000;
    --icon-pad-bg: #1e293b;
    --art-glow: #7dd3fc;
    --art-glow-opacity: 0.18;
    --art-sheen: #ffffff;
    --art-sheen-opacity: 0.18;
    --art-shadow: #000000;
    --art-shadow-opacity: 0.28;
    --art-muted-line: #64748b;
    --art-panel-tint: #1e293b;
    --accent-1: #22d3ee;
    --accent-2: #38bdf8;
    --accent-3: #60a5fa;
    --accent-4: #818cf8;
    --accent-5: #a78bfa;
    --accent-6: #2dd4bf;
}
:root[data-theme="light"] {
    --background: #f8fafc;
    --panel: #ffffff;
    --primary-text: #0f172a;
    --muted-text: #64748b;
    --inverse-text: #ffffff;
    --border: #e2e8f0;
    --shadow-color: #000000;
    --icon-pad-bg: #1e293b;
    --art-glow: #0891b2;
    --art-glow-opacity: 0.10;
    --art-sheen: #ffffff;
    --art-sheen-opacity: 0.34;
    --art-shadow: #0f172a;
    --art-shadow-opacity: 0.14;
    --art-muted-line: #94a3b8;
    --art-panel-tint: #f1f5f9;
    --accent-1: #0891b2;
    --accent-2: #0284c7;
    --accent-3: #2563eb;
    --accent-4: #4f46e5;
    --accent-5: #7c3aed;
    --accent-6: #0d9488;
}</style>
  <rect x="0" y="0" width="1.92E+3" height="1.08E+3" fill="#252a34" stroke="none" id="programmatic_background"/>
  <line id="HEADER_DECOR" x1="960.0" x2="1080.0" y1="123.0" y2="123.0" stroke="var(--accent-1)" stroke-width="6" stroke-linecap="round"/>
  <defs>
    <pattern id="svgfe27d758-napkin-hatch" patternUnits="userSpaceOnUse" width="12" height="12">
      <path d="M -3 12 L 12 -3 M 0 15 L 15 0" fill="none" stroke="var(--primary-text)" stroke-width="1" stroke-opacity="0.05"/>
    </pattern>
    <filter id="svgfe27d758-shadow" x="-30%" y="-30%" width="160%" height="160%">
      <feDropShadow dx="0" dy="3" stdDeviation="6" flood-color="#000000" flood-opacity="0.10"/>
      <feDropShadow dx="0" dy="8" stdDeviation="12" flood-color="#000000" flood-opacity="0.16"/>
    </filter>
    <radialGradient id="svgfe27d758-universal-edge-vignette" cx="50%" cy="50%" r="72%">
      <stop offset="0%" stop-color="var(--background)" stop-opacity="0"/>
      <stop offset="72%" stop-color="var(--background)" stop-opacity="0.12"/>
      <stop offset="100%" stop-color="var(--primary-text)" stop-opacity="0.08"/>
    </radialGradient>
    <linearGradient id="svgfe27d758-universal-surface-sheen" x1="0%" y1="0%" x2="100%" y2="100%">
      <stop offset="0%" stop-color="var(--art-sheen)" stop-opacity="var(--art-sheen-opacity)"/>
      <stop offset="46%" stop-color="var(--art-sheen)" stop-opacity="0.035"/>
      <stop offset="100%" stop-color="var(--art-panel-tint)" stop-opacity="0.14"/>
    </linearGradient>
    <radialGradient id="svgfe27d758-universal-icon-aura" cx="50%" cy="42%" r="64%">
      <stop offset="0%" stop-color="var(--art-glow)" stop-opacity="var(--art-glow-opacity)"/>
      <stop offset="100%" stop-color="var(--background)" stop-opacity="0"/>
    </radialGradient>
    <filter id="svgfe27d758-text-glow" x="-20%" y="-20%" width="140%" height="140%">
      <feDropShadow dx="0" dy="0" stdDeviation="2" flood-color="#000000" flood-opacity="0.4"/>
    </filter>
    <marker id="svgfe27d758-arrowhead" markerWidth="10" markerHeight="7" refX="9" refY="3.5" orient="auto" markerUnits="strokeWidth">
      <polygon points="0 0, 10 3.5, 0 7" fill="var(--muted-text)" opacity="0.6"/>
    </marker>
  </defs>
  <rect width="100%" height="100%" fill="var(--background)" id="CANVAS_BG"/>
  <rect width="100%" height="100%" fill="url(#svgfe27d758-napkin-hatch)"/>
  <rect id="UNIVERSAL_EDGE_VIGNETTE" width="100%" height="100%" fill="url(#svgfe27d758-universal-edge-vignette)" opacity="0.62"/>
  <text id="TITLE" x="960.0" y="59" text-anchor="middle" font-size="58" font-weight="800" fill="#0f172a" style="font-size: 60px; font-family: Inter, Segoe UI, Kalam, Roboto, Helvetica, Arial, sans-serif; font-weight: 700; letter-spacing:-1.2px;" data-final-font-size="60">
    <tspan x="960.0" dy="68.00px">Evolution of Project Stargate</tspan>
  </text>
  <rect id="TITLE_FRAME" x="134" y="57" width="1652" height="98" fill="none"/>
  <rect x="140" y="150" width="1640" height="850" rx="40" fill="var(--panel)" fill-opacity="0.24" stroke="var(--muted-text)" stroke-width="2.4" opacity="0.96"/>
  <line x1="960" y1="220" x2="960" y2="940" stroke="var(--muted-text)" stroke-width="14" stroke-linecap="round" opacity="0.18"/>
  <line x1="960" y1="220" x2="960" y2="940" stroke="var(--border)" stroke-width="4" stroke-linecap="round" opacity="0.88"/>
  <g id="DIAGRAM_MAIN">
    <g filter="url(#svgfe27d758-shadow)">
      <line x1="934" y1="255.0" x2="604.0" y2="255.0" stroke="var(--accent-1)" stroke-width="3.5" opacity="0.84"/>
      <circle cx="960" cy="255.0" r="20" fill="var(--background)" stroke="var(--accent-1)" stroke-width="3.2"/>
      <text x="960" y="261.0" text-anchor="middle" font-size="14" font-weight="800" fill="var(--primary-text)">1</text>
      <rect id="ITEM_1_BG" x="170" y="177.0" width="470" height="156" rx="22" fill="var(--panel)" fill-opacity="0.97" stroke="var(--accent-1)" stroke-width="3.2"/>
      <rect x="170" y="177.0" width="470" height="16" rx="8" fill="var(--accent-1)" fill-opacity="0.55"/>
      <circle id="ITEM_1_PAD" cx="568.0" cy="255.0" r="40" fill="var(--icon-pad-bg)" opacity="0.95" fill-opacity="0.9" stroke-width="2" stroke="var(--primary-text)"/>
      <circle id="ITEM_1_PAD_INNER" cx="568.0" cy="255.0" r="31.20" fill="var(--accent-5)" fill-opacity="0.22"/>
      <circle cx="568.0" cy="255.0" r="32" fill="none" stroke="var(--accent-1)" stroke-width="3" stroke-dasharray="6 4"/>
      <g id="ITEM_1_ICON" transform="translate(538.0, 225.0)" data-icon-size="60" stroke-dasharray="6 4">
        <g transform="translate(-6.977777777777785,-6.977777777777781) scale(3.081481481481482)" vector-effect="non-scaling-stroke" stroke-width="2.43" stroke-linecap="round" stroke-linejoin="round" stroke-opacity="1.0">
          <path d="M4.5 3h15" vector-effect="non-scaling-stroke" fill="none" stroke="#f1f5f9"/>
          <path d="M6 3v16a2 2 0 0 0 2 2h8a2 2 0 0 0 2-2V3" vector-effect="non-scaling-stroke" fill="none" stroke="#f1f5f9"/>
          <path d="M6 14h12" vector-effect="non-scaling-stroke" fill="none" stroke="#f1f5f9"/>
        </g>
      </g>
      <text id="ITEM_1_HEAD" x="346.0" y="195.0" text-anchor="middle" font-weight="800" font-size="24" fill="var(--accent-5)" data-bg-id="ITEM_1_BG" fill-opacity="1.0" style="font-size: 30px; font-family: Inter, Segoe UI, Kalam, Roboto, Helvetica, Arial, sans-serif; font-weight: 700; letter-spacing:-0.4px;" data-final-font-size="30">
        <tspan x="346.0" dy="29.33px">SRI Research</tspan>
      </text>
      <rect id="ITEM_1_HEAD_FRAME" x="206.0" y="195.0" width="280" height="34" fill="none"/>
      <text id="ITEM_1_BODY" x="362.0" y="235.0" text-anchor="middle" font-size="18" fill="var(--primary-text)" data-bg-id="ITEM_1_BG" style="font-size: 25px; font-family: Inter, Segoe UI, Kalam, Roboto, Helvetica, Arial, sans-serif; font-weight: 400;" data-final-font-size="25">
        <tspan x="362.0" dy="20.11px">Stanford researchers</tspan>
        <tspan x="362.0" dy="28.75px">develop early information</tspan>
        <tspan x="362.0" dy="28.75px">gathering protocols</tspan>
      </text>
      <rect id="ITEM_1_BODY_FRAME" x="202.0" y="235.0" width="320" height="70" fill="none"/>
    </g>
    <g filter="url(#svgfe27d758-shadow)">
      <line x1="986" y1="417.5" x2="1316.0" y2="417.5" stroke="var(--accent-2)" stroke-width="3.5" opacity="0.84"/>
      <circle cx="960" cy="417.5" r="20" fill="var(--background)" stroke="var(--accent-2)" stroke-width="3.2"/>
      <text x="960" y="423.5" text-anchor="middle" font-size="14" font-weight="800" fill="var(--primary-text)">2</text>
      <rect id="ITEM_2_BG" x="1280" y="339.5" width="470" height="156" rx="22" fill="var(--panel)" fill-opacity="0.97" stroke="var(--accent-2)" stroke-width="3.2"/>
      <rect x="1280" y="339.5" width="470" height="16" rx="8" fill="var(--accent-2)" fill-opacity="0.55"/>
      <circle id="ITEM_2_PAD" cx="1352.0" cy="417.5" r="40" fill="var(--icon-pad-bg)" opacity="0.95" fill-opacity="0.9" stroke-width="2" stroke="var(--primary-text)"/>
      <circle id="ITEM_2_PAD_INNER" cx="1352.0" cy="417.5" r="31.20" fill="var(--accent-6)" fill-opacity="0.22"/>
      <circle cx="1352.0" cy="417.5" r="32" fill="none" stroke="var(--accent-2)" stroke-width="3" stroke-dasharray="6 4"/>
      <g id="ITEM_2_ICON" transform="translate(1322.0, 387.5)" data-icon-size="60" stroke-dasharray="6 4">
        <g transform="translate(-3.5596638655462227,-3.2974789915966416) scale(2.796638655462185)" vector-effect="non-scaling-stroke" stroke-width="2.43" stroke-linecap="round" stroke-linejoin="round" stroke-opacity="1.0">
          <path d="M4.9 16.1C1 12.2 1 5.8 4.9 1.9" vector-effect="non-scaling-stroke" fill="none" stroke="#f1f5f9"/>
          <path d="M7.8 4.7a6.14 6.14 0 0 0-.8 7.5" vector-effect="non-scaling-stroke" fill="none" stroke="#f1f5f9"/>
          <circle cx="12" cy="9" r="2" vector-effect="non-scaling-stroke" fill="none" stroke="#f1f5f9"/>
          <path d="M16.2 4.8c2 2 2.26 5.11.8 7.47" vector-effect="non-scaling-stroke" fill="none" stroke="#f1f5f9"/>
          <path d="M19.1 1.9a9.96 9.96 0 0 1 0 14.1" vector-effect="non-scaling-stroke" fill="none" stroke="#f1f5f9"/>
          <path d="M9.5 18h5" vector-effect="non-scaling-stroke" fill="none" stroke="#f1f5f9"/>
          <path d="m8 22 4-11 4 11" vector-effect="non-scaling-stroke" fill="none" stroke="#f1f5f9"/>
        </g>
      </g>
      <text id="ITEM_2_HEAD" x="1570.0" y="357.5" text-anchor="middle" font-weight="800" font-size="24" fill="var(--primary-text)" data-bg-id="ITEM_2_BG" fill-opacity="1.0" style="font-size: 30px; font-family: Inter, Segoe UI, Kalam, Roboto, Helvetica, Arial, sans-serif; font-weight: 700; letter-spacing:-0.4px;" data-final-font-size="30">
        <tspan x="1570.0" dy="29.33px">Soviet Reports</tspan>
      </text>
      <rect id="ITEM_2_HEAD_FRAME" x="1430.0" y="357.5" width="280" height="34" fill="none"/>
      <text id="ITEM_2_BODY" x="1580.0" y="397.5" text-anchor="middle" font-size="18" fill="var(--primary-text)" data-bg-id="ITEM_2_BG" style="font-size: 25px; font-family: Inter, Segoe UI, Kalam, Roboto, Helvetica, Arial, sans-serif; font-weight: 400;" data-final-font-size="25">
        <tspan x="1580.0" dy="20.11px">Intelligence agencies</tspan>
        <tspan x="1580.0" dy="28.75px">monitor Soviet psychic</tspan>
        <tspan x="1580.0" dy="28.75px">research investments</tspan>
      </text>
      <rect id="ITEM_2_BODY_FRAME" x="1420.0" y="397.5" width="320" height="70" fill="none"/>
    </g>
    <g filter="url(#svgfe27d758-shadow)">
      <line x1="934" y1="580.0" x2="604.0" y2="580.0" stroke="var(--accent-3)" stroke-width="3.5" opacity="0.84"/>
      <circle cx="960" cy="580.0" r="20" fill="var(--background)" stroke="var(--accent-3)" stroke-width="3.2"/>
      <text x="960" y="586.0" text-anchor="middle" font-size="14" font-weight="800" fill="var(--primary-text)">3</text>
      <rect id="ITEM_3_BG" x="170" y="502.0" width="470" height="156" rx="22" fill="var(--panel)" fill-opacity="0.97" stroke="var(--accent-3)" stroke-width="3.2"/>
      <rect x="170" y="502.0" width="470" height="16" rx="8" fill="var(--accent-3)" fill-opacity="0.55"/>
      <circle id="ITEM_3_PAD" cx="568.0" cy="580.0" r="40" fill="var(--icon-pad-bg)" opacity="0.95" fill-opacity="0.9" stroke-width="2" stroke="var(--primary-text)"/>
      <circle id="ITEM_3_PAD_INNER" cx="568.0" cy="580.0" r="31.20" fill="var(--accent-1)" fill-opacity="0.22"/>
      <circle cx="568.0" cy="580.0" r="32" fill="none" stroke="var(--accent-3)" stroke-width="3" stroke-dasharray="6 4"/>
      <g id="ITEM_3_ICON" transform="translate(538.0, 550.0)" data-icon-size="60" stroke-dasharray="6 4">
        <g transform="translate(-3.0200000000000014,-3.800000000000003) scale(0.13)" vector-effect="non-scaling-stroke" fill="#f1f5f9" fill-opacity="1.0" stroke="none">
          <path fill="#f1f5f9" d="M341.28 22.78L254 123.75l63.156-33.656l4.438-2.375l4.437 2.405l18.314 9.938l-3.063-77.282zM129.814 46.563l24.375 130.407l88.718-47.282l-113.094-83.125zM321.53 108.97L83.345 235.905L192.156 293.5l237.47-125.75zm42.75 44.686l25.595 13.03l-197.313 103.94l-66.875-35.688l25.344-13.407l41.532 22.19l171.72-90.064zm92.19 18.22l9.092 24.03l26.22-22.656l-35.313-1.375zm-15.783 11.155L199.47 310.78l-5.782 83.376L465.75 249.344zm-334.562 19.564L16.562 226.78l36.876 19.564l6.093-16.28l1.25-3.314l3.126-1.656l42.22-22.5zm-34.438 48.312l-28.812 77l131.844 70.156l6.155-89.375l-109.188-57.78zm335.344 50.875l-174.25 92.75l54.907 103.44L325.5 358.093l142.47 26.625l-60.94-82.94zm-300.717 81.064l-19.438 44.812L144 402.876l-37.688-20.032z" vector-effect="non-scaling-stroke" stroke="none"/>
        </g>
      </g>
      <text id="ITEM_3_HEAD" x="346.0" y="520.0" text-anchor="middle" font-weight="800" font-size="24" fill="var(--primary-text)" data-bg-id="ITEM_3_BG" fill-opacity="1.0" style="font-size: 30px; font-family: Inter, Segoe UI, Kalam, Roboto, Helvetica, Arial, sans-serif; font-weight: 700; letter-spacing:-0.4px;" data-final-font-size="30">
        <tspan x="346.0" dy="29.33px">Stargate Funding</tspan>
      </text>
      <rect id="ITEM_3_HEAD_FRAME" x="206.0" y="520.0" width="280" height="34" fill="none"/>
      <text id="ITEM_3_BODY" x="362.0" y="560.0" text-anchor="middle" font-size="18" fill="var(--primary-text)" data-bg-id="ITEM_3_BG" style="font-size: 25px; font-family: Inter, Segoe UI, Kalam, Roboto, Helvetica, Arial, sans-serif; font-weight: 400;" data-final-font-size="25">
        <tspan x="362.0" dy="20.11px">Military and intelligence</tspan>
        <tspan x="362.0" dy="28.75px">agencies provide</tspan>
        <tspan x="362.0" dy="28.75px">sustained funding</tspan>
      </text>
      <rect id="ITEM_3_BODY_FRAME" x="202.0" y="560.0" width="320" height="70" fill="none"/>
    </g>
    <g filter="url(#svgfe27d758-shadow)">
      <line x1="986" y1="742.5" x2="1316.0" y2="742.5" stroke="var(--accent-4)" stroke-width="3.5" opacity="0.84"/>
      <circle cx="960" cy="742.5" r="20" fill="var(--background)" stroke="var(--accent-4)" stroke-width="3.2"/>
      <text x="960" y="748.5" text-anchor="middle" font-size="14" font-weight="800" fill="var(--primary-text)">4</text>
      <rect id="ITEM_4_BG" x="1280" y="664.5" width="470" height="156" rx="22" fill="var(--panel)" fill-opacity="0.97" stroke="var(--accent-4)" stroke-width="3.2"/>
      <rect x="1280" y="664.5" width="470" height="16" rx="8" fill="var(--accent-4)" fill-opacity="0.55"/>
      <circle id="ITEM_4_PAD" cx="1352.0" cy="742.5" r="40" fill="var(--icon-pad-bg)" opacity="0.95" fill-opacity="0.9" stroke-width="2" stroke="var(--primary-text)"/>
      <circle id="ITEM_4_PAD_INNER" cx="1352.0" cy="742.5" r="31.20" fill="var(--accent-2)" fill-opacity="0.22"/>
      <circle cx="1352.0" cy="742.5" r="32" fill="none" stroke="var(--accent-4)" stroke-width="3" stroke-dasharray="6 4"/>
      <g id="ITEM_4_ICON" transform="translate(1322.0, 712.5)" data-icon-size="60" stroke-dasharray="6 4">
        <g transform="translate(-5.65714285714286,-9.0) scale(2.2285714285714286)">
          <path d="M2 15H30V28C30 29.1046 29.1046 30 28 30H4C2.89543 30 2 29.1046 2 28V15Z" fill="#8C5543"/>
          <path d="M11.1 9H4C2.89543 9 2 9.89543 2 11V15C2 17.2091 3.79086 19 6 19H26C28.2091 19 30 17.2091 30 15V11C30 9.89543 29.1046 9 28 9H20.9C20.4367 6.71776 18.419 5 16 5C13.581 5 11.5633 6.71776 11.1 9ZM13.1707 9C13.5825 7.83481 14.6938 7 16 7C17.3062 7 18.4175 7.83481 18.8293 9H13.1707Z" fill="#6D4534"/>
          <path d="M13 19L16 18L19 19V21C19 21.5523 18.5523 22 18 22H14C13.4477 22 13 21.5523 13 21V19Z" fill="#D3883E"/>
          <path d="M13 18C13 17.4477 13.4477 17 14 17H18C18.5523 17 19 17.4477 19 18V19H13V18Z" fill="#E19747"/>
        </g>
      </g>
      <text id="ITEM_4_HEAD" x="1570.0" y="682.5" text-anchor="middle" font-weight="800" font-size="24" fill="var(--primary-text)" data-bg-id="ITEM_4_BG" fill-opacity="1.0" style="font-size: 30px; font-family: Inter, Segoe UI, Kalam, Roboto, Helvetica, Arial, sans-serif; font-weight: 700; letter-spacing:-0.4px;" data-final-font-size="30">
        <tspan x="1570.0" dy="29.33px">CIA Oversight</tspan>
      </text>
      <rect id="ITEM_4_HEAD_FRAME" x="1430.0" y="682.5" width="280" height="34" fill="none"/>
      <text id="ITEM_4_BODY" x="1580.0" y="722.5" text-anchor="middle" font-size="18" fill="var(--primary-text)" data-bg-id="ITEM_4_BG" style="font-size: 25px; font-family: Inter, Segoe UI, Kalam, Roboto, Helvetica, Arial, sans-serif; font-weight: 400;" data-final-font-size="25">
        <tspan x="1580.0" dy="20.11px">Agency takes</tspan>
        <tspan x="1580.0" dy="28.75px">responsibility for final</tspan>
        <tspan x="1580.0" dy="28.75px">program evaluation</tspan>
      </text>
      <rect id="ITEM_4_BODY_FRAME" x="1420.0" y="722.5" width="320" height="70" fill="none"/>
    </g>
    <g filter="url(#svgfe27d758-shadow)">
      <line x1="934" y1="905.0" x2="604.0" y2="905.0" stroke="var(--accent-5)" stroke-width="3.5" opacity="0.84"/>
      <circle cx="960" cy="905.0" r="20" fill="var(--background)" stroke="var(--accent-5)" stroke-width="3.2"/>
      <text x="960" y="911.0" text-anchor="middle" font-size="14" font-weight="800" fill="var(--primary-text)">5</text>
      <rect id="ITEM_5_BG" x="170" y="827.0" width="470" height="156" rx="22" fill="var(--panel)" fill-opacity="0.97" stroke="var(--accent-5)" stroke-width="3.2"/>
      <rect x="170" y="827.0" width="470" height="16" rx="8" fill="var(--accent-5)" fill-opacity="0.55"/>
      <circle id="ITEM_5_PAD" cx="568.0" cy="905.0" r="40" fill="var(--icon-pad-bg)" opacity="0.95" fill-opacity="0.9" stroke-width="2" stroke="var(--primary-text)"/>
      <circle id="ITEM_5_PAD_INNER" cx="568.0" cy="905.0" r="31.20" fill="var(--accent-3)" fill-opacity="0.22"/>
      <circle cx="568.0" cy="905.0" r="32" fill="none" stroke="var(--accent-5)" stroke-width="3" stroke-dasharray="6 4"/>
      <g id="ITEM_5_ICON" transform="translate(538.0, 875.0)" data-icon-size="60" stroke-dasharray="6 4">
        <g transform="translate(-6.977777777777781,-6.977777777777781) scale(3.081481481481482)" vector-effect="non-scaling-stroke" stroke-width="2.43" stroke-linecap="round" stroke-linejoin="round" stroke-opacity="1.0">
          <path d="M21 17.85h-18c0 -4.05 1.421 -4.05 3.79 -4.05c5.21 0 1.21 -4.59 1.21 -6.8a4 4 0 1 1 8 0c0 2.21 -4 6.8 1.21 6.8c2.369 0 3.79 0 3.79 4.05z" vector-effect="non-scaling-stroke" fill="none" stroke="#f1f5f9"/>
          <path d="M5 21h14" vector-effect="non-scaling-stroke" fill="none" stroke="#f1f5f9"/>
        </g>
      </g>
      <text id="ITEM_5_HEAD" x="346.0" y="845.0" text-anchor="middle" font-weight="800" font-size="24" fill="var(--accent-3)" data-bg-id="ITEM_5_BG" fill-opacity="1.0" style="font-size: 30px; font-family: Inter, Segoe UI, Kalam, Roboto, Helvetica, Arial, sans-serif; font-weight: 700; letter-spacing:-0.4px;" data-final-font-size="30">
        <tspan x="346.0" dy="29.33px">Program Termination</tspan>
      </text>
      <rect id="ITEM_5_HEAD_FRAME" x="206.0" y="845.0" width="280" height="34" fill="none"/>
      <text id="ITEM_5_BODY" x="362.0" y="885.0" text-anchor="middle" font-size="18" fill="var(--primary-text)" data-bg-id="ITEM_5_BG" style="font-size: 25px; font-family: Inter, Segoe UI, Kalam, Roboto, Helvetica, Arial, sans-serif; font-weight: 400;" data-final-font-size="25">
        <tspan x="362.0" dy="20.11px">Independent review leads</tspan>
        <tspan x="362.0" dy="28.75px">to official</tspan>
        <tspan x="362.0" dy="28.75px">project closure</tspan>
      </text>
      <rect id="ITEM_5_BODY_FRAME" x="202.0" y="885.0" width="320" height="70" fill="none"/>
    </g>
  </g>
</svg>
